<mxfile host="app.diagrams.net" modified="2023-01-12T03:50:29.301Z" agent="5.0 (Windows NT 10.0; Win64; x64) AppleWebKit/537.36 (KHTML, like Gecko) Chrome/108.0.0.0 Safari/537.36" etag="3XF2AGefmtW61qfFYAJV" version="20.8.4" type="github">
  <diagram id="63c4oZNiU5SOyXqaUDiy" name="Page-1">
    <mxGraphModel dx="1434" dy="666" grid="1" gridSize="10" guides="1" tooltips="1" connect="1" arrows="1" fold="1" page="1" pageScale="1" pageWidth="1169" pageHeight="827" math="0" shadow="0">
      <root>
        <mxCell id="0" />
        <mxCell id="1" parent="0" />
        <mxCell id="DkvLvzVgcHRsmgebOkIh-9" style="edgeStyle=orthogonalEdgeStyle;rounded=0;orthogonalLoop=1;jettySize=auto;html=1;entryX=0;entryY=0.5;entryDx=0;entryDy=0;entryPerimeter=0;startArrow=none;strokeWidth=3;" parent="1" target="DkvLvzVgcHRsmgebOkIh-2" edge="1">
          <mxGeometry relative="1" as="geometry">
            <mxPoint x="480" y="190" as="sourcePoint" />
            <Array as="points">
              <mxPoint x="480" y="80" />
              <mxPoint x="720" y="80" />
            </Array>
          </mxGeometry>
        </mxCell>
        <mxCell id="DkvLvzVgcHRsmgebOkIh-33" style="edgeStyle=orthogonalEdgeStyle;rounded=0;orthogonalLoop=1;jettySize=auto;html=1;strokeWidth=3;" parent="1" source="DkvLvzVgcHRsmgebOkIh-1" edge="1">
          <mxGeometry relative="1" as="geometry">
            <mxPoint x="210" y="520" as="targetPoint" />
            <Array as="points">
              <mxPoint x="210" y="380" />
            </Array>
          </mxGeometry>
        </mxCell>
        <mxCell id="DkvLvzVgcHRsmgebOkIh-1" value="" style="shape=image;verticalLabelPosition=bottom;labelBackgroundColor=default;verticalAlign=top;aspect=fixed;imageAspect=0;image=data:image/png,/9j/4AAQSkZJRgABAQAAAQABAAD/2wBDAAEBAQEBAQEBAQEBAQEBAQEBAQEBAQEBAQEBAQEBAQEBAQEBAQEBAQEBAQEBAQEBAQEBAQEBAQEBAQEBAQEBAQH/2wBDAQEBAQEBAQEBAQEBAQEBAQEBAQEBAQEBAQEBAQEBAQEBAQEBAQEBAQEBAQEBAQEBAQEBAQEBAQEBAQEBAQEBAQH/wAARCAEYAR4DASIAAhEBAxEB/8QAHwAAAQUBAQEBAQEAAAAAAAAAAAECAwQFBgcICQoL/8QAtRAAAgEDAwIEAwUFBAQAAAF9AQIDAAQRBRIhMUEGE1FhByJxFDKBkaEII0KxwRVS0fAkM2JyggkKFhcYGRolJicoKSo0NTY3ODk6Q0RFRkdISUpTVFVWV1hZWmNkZWZnaGlqc3R1dnd4eXqDhIWGh4iJipKTlJWWl5iZmqKjpKWmp6ipqrKztLW2t7i5usLDxMXGx8jJytLT1NXW19jZ2uHi4+Tl5ufo6erx8vP09fb3+Pn6/8QAHwEAAwEBAQEBAQEBAQAAAAAAAAECAwQFBgcICQoL/8QAtREAAgECBAQDBAcFBAQAAQJ3AAECAxEEBSExBhJBUQdhcRMiMoEIFEKRobHBCSMzUvAVYnLRChYkNOEl8RcYGRomJygpKjU2Nzg5OkNERUZHSElKU1RVVldYWVpjZGVmZ2hpanN0dXZ3eHl6goOEhYaHiImKkpOUlZaXmJmaoqOkpaanqKmqsrO0tba3uLm6wsPExcbHyMnK0tPU1dbX2Nna4uPk5ebn6Onq8vP09fb3+Pn6/9oADAMBAAIRAxEAPwD+7Ik5PJ6nufWkyfU/maG6n6n+dfxkf8HLn7c3/BW3/gm58WPhN8Xf2WP2krvwj+yv8ZdGbwufD8nwe+CPi2DwF8W/DMLz6jpUniHxd8Nde117Lxp4fMPiDRYdS1e8lN/pfiuK2MFhZ2lvEAf2b5PqfzNGT6n8zX+R/wD8RO3/AAW3/wCjyYv/AAwH7NP/AM5+j/iJ2/4Lb/8AR5MX/hgP2af/AJz9AH+uBk+p/M0ZPqfzNf5H/wDxE7f8Ft/+jyYv/DAfs0//ADn6P+Inb/gtv/0eTF/4YD9mn/5z9AH+uBk+p/M0ZPqfzNf5H/8AxE7f8Ft/+jyYv/DAfs0//Ofo/wCInb/gtv8A9Hkxf+GA/Zp/+c/QB/rgZPqfzNGT6n8zX+R//wARO3/Bbf8A6PJi/wDDAfs0/wDzn6P+Inb/AILb/wDR5MX/AIYD9mn/AOc/QB/rgZPqfzNGT6n8zX+R/wD8RO3/AAW3/wCjyYv/AAwH7NP/AM5+j/iJ2/4Lb/8AR5MX/hgP2af/AJz9AH+uBk+p/M0ZPqfzNf5H/wDxE7f8Ft/+jyYv/DAfs0//ADn6P+Inb/gtv/0eTF/4YD9mn/5z9AH+uBk+p/M0ZPqfzNf5H/8AxE7f8Ft/+jyYv/DAfs0//Ofo/wCInb/gtv8A9Hkxf+GA/Zp/+c/QB/rgZPqfzNGT6n8zX+R//wARO3/Bbf8A6PJi/wDDAfs0/wDzn6P+Inb/AILb/wDR5MX/AIYD9mn/AOc/QB/rgZPqfzNGT6n8zX+R/wD8RO3/AAW3/wCjyYv/AAwH7NP/AM5+j/iJ2/4Lb/8AR5MX/hgP2af/AJz9AH+uBk+p/M0ZPqfzNf5H/wDxE7f8Ft/+jyYv/DAfs0//ADn6P+Inb/gtv/0eTF/4YD9mn/5z9AH+uBk+p/M0ZPqfzNf5H/8AxE7f8Ft/+jyYv/DAfs0//Ofo/wCInb/gtv8A9Hkxf+GA/Zp/+c/QB/rgZPqfzNGT6n8zX+R//wARO3/Bbf8A6PJi/wDDAfs0/wDzn6P+Inb/AILb/wDR5MX/AIYD9mn/AOc/QB/rgZPqfzNGT6n8zX+R/wD8RO3/AAW3/wCjyYv/AAwH7NP/AM5+j/iJ2/4Lb/8AR5MX/hgP2af/AJz9AH+uBk+p/M0ZPqfzNf5H/wDxE7f8Ft/+jyYv/DAfs0//ADn6P+Inb/gtv/0eTF/4YD9mn/5z9AH+uBk+p/M0ZPqfzNf5H/8AxE7f8Ft/+jyYv/DAfs0//Ofo/wCInb/gtv8A9Hkxf+GA/Zp/+c/QB/rgZPqfzNGT6n8zX+R//wARO3/Bbf8A6PJi/wDDAfs0/wDzn6cn/Bzn/wAFuZHSOP8AbHjd3ZURF+AH7NJZnYhVVQPg/kliQAByScUAf632T6n8zT0JJOSTx6+4r86/+CVqftjXf7D3wV8Xft4/Em8+I/7SfxI0JfiL4we78HeCfA7eCtN8WpFqXhjwCdD8CeGfC2mJe+HvD72H9uy3lhPqQ8R3esWz3klnb2UMH6Jp1P0/qKAGt1P1P86/PT/gqZ+wv4X/AOCiv7EHxs/Zj1yKyh8Q+JPD0mvfC3X7yMH/AIRX4r+GEk1TwPrazBHmt7WTVIho+uG32z3PhzVdYsVYC6NfoW3U/U/zpKAP8Hnx14J8UfDXxr4t+HnjfRr3w74y8C+JNb8I+KtA1KIwahoviHw7qNzpOsaXewnJiubHULS4tpkydskbAEjmuVr+wr/g7k/4Jw/8KG/ae8Lft1fDjQfsvwy/ahkOh/E0WFt5dh4f+Ovh/Tgz3tx5SJb2w+I3hazTV4UVWmvNf8O+LdQupDLeJu/j1oAKKKKACiiigAooooAKKKKACiiigAooooAKKKKACiiigAooooAKKKKACiiigAooooAKKKKACiiigAr+gP8A4Nwf+Ccjft+f8FBfCGr+NNCOp/AT9mVtL+MnxXa6t/O0nWtT03UA3w58A3RdXt5j4q8UWi3uo6fOpjv/AAt4e8Swkq5jJ/ACKKSeWOCGN5ZppEiiijUs8kkjBI40UZLO7EKqgZJIA5r/AF5f+Dfb/gnNF/wTt/4J8/D7QPFeipp3x3+OKWfxl+N8s9uI9T03W/EWnQN4Z8C3TOvnxJ4E8MGx0q7sTLJbReJpvEt5bELqDZAP3FVVRVRFCoihVVRhVVRhVAHAAAAAHQVKnU/T+oplPTqfp/UUANbqfqf50lK3U/U/zpKAPhD/AIKW/sSeEP8AgoX+xb8bv2XPFSWdvf8AjfwvPe/D/wAQXUXmHwj8TvD+dW8CeJYnRHuIobLXra2t9WS1Mc99oN3qulmQQ30oP+Ln8SPh54v+EnxB8b/C34gaJeeG/HPw68V6/wCCvF+gX8fl3uj+I/DOp3Oj6xp1ygJAltL+0nhYqzK23cjMpBP+73X+cB/wd5/8E4f+FOftCeDP2/vhvoP2f4fftFvB4M+MAsLbZZaH8a/D2ln+ydbufKVILdfiH4Q0/ftSMtNrnhLXdQvJmutYj3gH8Z1FFFABRRRQAUUUUAFFFFABRRRQAUUUUAFFFFABRRRQAUUUUAFFFFABRRRQAUUUUAFFFFABRRU9tbXF7c29naQy3N1dzxW1tbwo0k09xO6xQwxRoC0kksjKiIoLMzBQCTQB/RD/AMG0X/BOM/t2/wDBQHw5468caEdS+Av7KTaP8XviGbu383Stf8XW985+FvgW43rJBN/bHiKxl8Q6jZXMUlrf+HfCmtWE+03kW7/WHACgKoAVQAABgAAYAA7ADgCvxc/4ILf8E67f/gnL/wAE+vhp4C8R6PHYfG/4rxW/xh+O1xJCqahbeMvFWn2j6d4OuJGUyrF4B8OR6X4altlmkszrdtrup2gT+1Zd37SUAFPTqfp/UUynp1P0/qKAGt1P1P8AOkpW6n6n+dJQAV8U/wDBRH9jLwV+39+x18b/ANlnxslrDH8R/CN3H4T164g86Twj8QdIK6v4F8V25VTOp0XxLZ6fcXkVu0cl/pZv9Md/IvZlb7WooA/wkfiz8LvGvwR+J/xA+D/xI0W68OePvhj4w8Q+BvF+h3iFLjTPEPhnVLnSNUtW/hdY7u1k8qaMtFPEUmid4nRj57X9q/8Awd+/8E4f+FZfGjwJ/wAFDvhtoPk+DPji1n8OvjithbbbbSvizoOlt/wifii7EShIl8c+EdOk025k2pGNW8INcXMr3uurv/iooAKKKKACiiigAooooAKKKKACiiigAooooAKKKKACiiigAooooAKKKKACiiigAooooAK/pO/4Nhv+CcR/bc/b40j4t+O9COo/Aj9kVtG+Kfiz7ZbGXS/EXxHN3K3wp8Gy71aGcPrWn3Xi/UbaVJra40rwncadeIqapDv/AJvNPsL3Vb+y0vTbW4vtR1G7t7GwsrWKSe6u7y7mSC2treCJXlmnnmkSKKKNWeR2VVUsQK/2Iv8Aght/wTxsv+Cb/wDwT++Ffwn1jS7e1+Mnj22i+LPx5vhGn2t/iL4usbOZ/Dks43GS28C6JFpfhCBY5DbS3Gk32pwokmpzlgD9ggAAAAAAAAAMAAcAADgADoKWiigAp6dT9P6imU9Op+n9RQA1up+p/nSUrdT9T/OkoAKKKKAPkH9vT9kLwJ+3f+yR8bv2WfiDFAulfFPwbfaZo+sS263E3hXxnY7NU8FeLrNDhjdeGvE9lpeqrGjJ9qitprKUm3uZkb/Fd+Nnwf8AHf7P3xd+JPwQ+J2jT+H/AIgfCrxp4h8CeLdJnVgbXW/Dep3Gl3vkyFVFxZzyW5uLG8iBgvbOWC6t2eGaN2/3YK/zzP8Ag8G/4Jw/8IT8S/h7/wAFG/hroPl+HPikdO+Ffx/XT7b91YfELRtOdfAHjS+ESsVXxV4Y0+bwxqF3IIbWC98K6IjPJfa4N4B/EFRRRQAUUUUAFFFFABRRRQB/SZ/wbw/8ETPDn/BU/wCJfxB+Jfx71TXtF/Zf+Bl5omm+INM8M3Z0vX/if461mKbULPwVY60I5X0XRNM0u3XUvFuo2irqwt9S0jTtJktJ9Sk1XTP7XvjL/wAGxn/BIL4ofDDUPAPhf9nKX4N+IBpctn4b+Jnw98e+Pj4w8P34hMdtqU48T+JfEOi+JSkm1rm38TaVqi3Cbwj28zLOn4Af8Gd//BQD4L/DW2+OX7CfxO8UaJ4H8bfEzx/p3xd+DV5r17babZ+O9YuPDum+E/FngqzvrySGA+I7W18PeHtU0HSBI9zrFvPrZtIzJp5Sb+9nxr488FfDfwnr3jzx/wCK/D3gzwX4W0u71vxH4p8TavY6LoOi6RYxNPd6jqWqahPBZ2lpBErPJNNMiKB1yQKAP8TT9u/9kHxz+wZ+1r8bf2T/AIh3kGq+IfhD4sOkQa9aQPa2vifw1qun2XiHwd4ot7V3la0j8R+FNX0fWGsmmmaxlvJLJ5pJLd3P9RP/AAbof8G9PwW/bZ+D/wDw23+2vY634o+EmteJNa8PfBr4O6VrWqeGNO8bQ+FNQl0fxH408Y67oVzY69JokPiK11Dw/o+i6Nqekyz3ui6ndandTWTW1rP+CH/Ba39sjwT+3j/wUr/aU/aL+GO+X4Z65r3h/wAIfD/UJYJLaXXvC3w48KaJ4FsfE7QzJHcxQ+KJdBuPENlBdxQ3drYala2tzDFNA6L/AHN/8GoP/BQL4K/Fz9gfwd+xbeeKdC8P/H39mvUvHFofBOpX1rYax41+H3ivxnrvjvSfGnhqzmeNtXtdMufE974c16OwWe50q40y0vNTjgh1rT5bgA9T/bj/AODWb/gm78evg14m0/8AZr+GKfswfHLTdEvbjwB408JeJfF+p+F77XLW2kk03R/HPhTxFrWvaffaDqFwq299qOj2+neIbQSrdxX10lubC4/y6vHngjxJ8NfHHjD4c+MdOl0jxd4D8Ua94N8T6TMVabTfEPhrVLrRtYsJChZTJaahZ3Fu5UspaM7SRg1/t+/tR/tS/BD9jv4J+N/j58ffHeieBfh94H0e81K8vdTvbaO91e9itpZbDw74d0+SaO41zxJrc8a2OjaLYLLeX93KkUSY3Mv+KH+0j8YJvj/+0X8dfj1PpyaRcfGb4x/Ej4ry6SjB49Ml8feMtY8WPp6sqqGW0bVTbhgqgiPIVQcAA/vV/wCCIn/Bsj+yprX7MHww/ai/b38GX/xj+JPxs8KaP8Q/CfwovfEGv+HfAvw68E+JrOHVfCX9rWfhnUtG1TxH4u1bRLm11bV4tZvzpGk/2hFo66I19ps+pXPVf8FoP+DYn9kJv2X/AIpftE/sH+Br34I/GD4M+D9b+IepfDfS/EPiHxB4C+J/hjwtp8+r+JtKg0zxPqetX3hzxbDotnc3XhyXQb220rUL21Gk3+kPLqceq6f+2n/BED/god8Ev28P2Efgdc+CfFWhRfFf4SfDTwT8M/jT8MzfWsHiXwh4s8HaBY+HJdUfRmdbr/hFvFY03+2/DOqwJNYTWl02mtdf2rpmp2lr13/BZX/goB8Ff2Cf2Gvjf4u+IXirQ0+IHjz4deM/APwZ+Hb31q/iPx5488T6DeaJpkVjo4kN5LoOh3Gow6t4p1Tyfsmm6Rbyh5WvbmxtboA/xsiCpKkYIJBB6gg4IP0NJT5HMkjyEYMjs5A6AsxYj9aZQAUUUUAFFFFABRRWjo+kanr+raZoWi2F3qmsazqFnpWlaZYW8t3fahqWoXEdpZWVnawJJNcXV1cyxwQQQo8ksrqiKzMAQD+mP/g1r/4Jxf8ADZH7dtp8ffH+gm/+B37HzaP8Q9R+223maX4k+LtzPM3wt8NHzF8q4GlX9jeeOdQRDKka+G9Osr6LyNZi3/6nnTpX5O/8EV/+CfGmf8E3f2BPhH8ELzT7SH4reIrJfid8dtTgETy6h8VPGFnZ3Or6a91Flbq08HadDpfgvTZk2x3FnoEd75azXk5b9YqACiiigAp6dT9P6imU9Op+n9RQA1up+p/nSUrdT9T/ADpKACiiigAr5Y/ba/ZR8Aftv/sr/Gv9lz4lW8b+G/i54J1Lw/DqLW8dzceG/EcYXUPCXi3T45CqHUvCniaz0rX7EMwR7jT0ilzDJIrfU9FAH+Fd+0B8D/H/AOzV8bfil8AvilpMmifED4R+N/EHgXxRYOHMY1LQNQmsXu7KV0j+16ZqMUcWo6VfRr5F/p11a3luzQzxsfIK/uj/AODwv/gnD/YHi34df8FJPhroO3S/GR0r4Q/tEDT7b5YPFGnWbp8NPHmoeUrvjWdEs5/BWqX9wYbaCbQvCVqpe61Q7v4XKACiiigAooooAKKKKAO5+GvgH4i/FDxz4b8B/CXwl4t8dfEXxHqUNj4U8K+BdH1TXvFer6oSXhg0bS9FgudSubpQhlH2WJnjRGlJVUZh+vn7TP8AwTr/AOC7PhX4Gx+KP2mPhN+2L4i+BvhnTo9Xm03xH491z4oaH4Q0myg806lq3gnTPF/ii88K2GmW6mS5utU0PToNMiR3uXt0RiP6W/8Agy//AGZfhTc/C/8Aai/a31LSNK1j4w2/xI074JeHNSvYILjUfBfg2w8K6L4v1iTRndTJYHxlqPiG0t9RuExJPD4Vt7eJ0i+1JL/c5LFFPFJBPHHNDMjxSwyoskUscilXjkjcFXR1JVlYFWUkEEGgD/BUIIJBBBBIIIwQRwQQeQQeor6I/Ze+B37Tvx8+LOh+EP2SfAPxS8e/F61YatpMHwlstak8R6FFbSIja7Nq+jtAfDdhZyyRibW76+0+xtGkQS3cZdc/on/wcEfs7/DD9mD/AIK0ftXfDD4PabpugeBJ9b8HePrDwtpMcVvp/hXUviZ4A8MeO/EOh2VnbhbfT9Ph17XtRutK023jht9O0m7sbK3hjhgjFf3b/wDBqj+zL8KfhD/wSq+GHxs8LaRpU3xM/aV8Q/EDxf8AErxdHBDLq10vhH4heK/h/wCGPC39oFTdJpHh/SfDS3MWmF1t4Na1fXLtIxJeyOwB/Ah+3j+w9/wWB+DfhbSfiH+3v8Nv2oL/AMEaZ5NpY+OfiV4x1f4u+FPDTXrxw21ne+JrHxN4y0jwtLeyeVBbWupXumyXMqrDFG7rtH5N1/u//ELwD4N+KngbxZ8OPiH4c0jxd4H8b6BqvhnxV4Z16zh1DSNb0PWLOax1HT7+0nV4pre5tZpI3UjIDblKsAR/iEfta/C7w78FP2rf2kvgx4RvzqPhT4U/Hz4tfDbw1qTSrcG90DwX4+17w1pF406/LMbjT9Ot5jKDiTduHWgD2P8AYX/ZY/4KB/tEePLy/wD2B/hz8dPEXjPwxGseqeNPhBfav4Rg8MC8G6G21f4hwaloGjaBNfLGzW1pqGvWc14sMjQRSiJyup+3h+yf/wAFGf2evF2m65+398Ofj5o3iLxEv2HRvHnxf1TWPG+n689srzPpmlfEWTVfEeh6rd2iM002m2evT3NtHIJZII0kVm/1lv8Agkr+zR8Kf2VP+Cef7K3w2+EukaVZ6ZqPwb8A+PPE+u6dBAtx438c+OvC2k+JPFXjHVL2JfN1C51jU7+U2clxLMbLSItO0u2dLKwtoo+o/wCCnX7Onws/ak/YN/ah+E/xc0jStQ8OXnwc8e6/pmqanBA8ng/xX4X8Nalr3hfxpplzMpaw1Hw1rNjaalFcRsgeGGa0ufMs7m4hkAP8UKinyoI5ZIwchJHQH1CsVB/HGaZQAUUUUAFFFFABX9TX/Bqp/wAE4T+1t+2837TnxB0L7d8Ff2PJNK8YW4vrbzNO8SfG3UWmb4caOglVUuB4VNreePL17eSRrHUNH8NQXkJt9YTd/L74e8P614s1/RPC/hzTLzWfEHiPVtO0LQ9I063lu9Q1TV9Wu4bHTtPsrWFXmuLu8u54be3giRpJZZERFLMBX+yr/wAEdv2AdF/4JvfsGfB39nxbSzHxFutNX4g/G7WLURM2t/Fzxha2l54mDXUWFvLTw3DFp/g7Rrnahm0Xw7p8roJpJSwB+odFFFABRRRQAU9Op+n9RTKenU/T+ooAa3U/U/zpKVup+p/nSUAFFFFABRRRQB82ftg/sw/D79s39mb4z/sxfE+0S58H/GDwPq3hW6uTDHPcaHqk0QufDnijTUlIjGr+FfENtpniHSXc7E1DTbdnDIGU/wCKn+0t+z/8Qf2Vvj58Wv2dvinpj6V49+EHjnXvBHiCApIsF1No97JDa6vpzypG1zpGuWH2XWNHvVUR3ul31pdxExzKT/uf1/Ax/wAHh3/BOL7NefDf/gpP8NNBxDff2T8Hf2jRp9scLeRI6fC74gaj5SE/6RbpceA9X1C5ZURrbwPYxgyTsSAfwbUUUUAFFFFABRRRQB+5f/BEL/gtJ43/AOCRnxc8Yzal4QvPin+zz8YY9Gg+Knw9sNRh07X7DUtBa7TRPHHgm7vQ2nx+INLtdRv7O90u9NtYeI9Pmjs7y9sZ7PTdRsf63vjh/wAHkX7B+gfC3UdV+Afwc+P/AMQ/i5e6XL/wjnhPx14f8L+BfCmlavLCRC3i/wASWPi/xLdC0tJmWSWDw7pWsPeiNrdLqyWQXcf8fv8AwRb/AOCNfxN/4K5fGfxPoVn4pb4W/Aj4TW+kaj8XvimdLGr31vLrct0NC8G+D9LlmtrbUfFevR6dqM4nu7hNN0LTbO41O/FzM2m6Vqn9cvxl/wCDMz9ibVfhhqGn/Af9oL9obwb8XbTS5TofiT4j6n4G8beCtU1eOEtGniLw5ofgbwfqlvaXdwqxG50fXYH0+KV5jZ6m0SwSAH+fH+0p+0N8Tf2r/jv8Uv2i/jHrK678Sfi54t1Lxf4ovoo2gs4rm+dUtdL0u2Z5TZ6LomnRWejaLYiSRbHSrCztFdlhBP8ART/wQe/4OJ3/AOCY3gnVf2Zv2jPAfiv4ofszah4kvvFfhHVPAkumz+P/AIVa1rRjbxBaaZo2u6hpOk+IvCmtXca6tLpba1o13pWrTanqFrNqDalJZr/Ot+0p+zz8Tv2T/jv8Uf2dPjJoy6F8SfhH4t1Lwh4osYZGns5bmxdXtdU0u6ZIjeaLrenTWes6LfeXGL3Sr+zulRRMFH7/AH/BCz/g3k1//gqV4e1v9oT44ePvEXwf/Zb8P+IrrwnpFx4QstPk+IfxU8R6akL65b+FbvXLW/0bw/4f0E3MNte+Jr3SddW51YTaRY6XLLZ6jc2IB+5n7eH/AAeHfs+j4MeJ/CX7Bnwz+KetfGfxXol7pOk/EP4s6BoPhXwd8OJNStpLc+IbXR7TxD4i1TxZ4g0oO0un6VdWmlaIt59mu7y/1G3hm0y5/wA9bWNX1PX9W1PXdbv7rVNZ1rULzVdV1O+nkub3UNS1C4ku729u7iVnlnubq5lknnmkZnkkdnZixJr/AEE/24/+DOP4HWnwb8TeLP2EfjJ8W4PjF4X0W91fS/h58atX8J+J/C/xEl062ef/AIR7T9f0Lwr4PvvCWu6oqPHYajqH9taNJffZrW6ttLtZ5tStf8+zWNI1Pw/q2p6FrdhdaXrOi6heaVqum30Elte6fqWn3Elpe2V3byqksFza3MUsE8Miq8ciMjKGBFAH9p3/AARl/wCDp7wn+yh+z94J/ZQ/bm8BfEHxh4T+FOkW3hX4U/GP4Z2+k694hsfBenoIdC8H+N/C2t6xoP2q08L2Srpei+INE1Oe6OjQabpl1oMktlJqlzq/8FkP+DqjwX+0/wDs9+Of2V/2EvAfxE8KaL8WdEvPCPxR+M/xNtdJ8Pa0fBOqxNbeIPCvgPwvo2s6+8Y8UadLLo+reItcv7O4ttJuNSsrHQ/tN5bavY8V/wAEaP8Ag1j0f9sT4BeD/wBqz9tr4j/EH4c+A/ilpkPiP4UfCj4XHRNJ8Zaz4OuwX0fxn4s8UeJdF8R2elad4kgC6homh6boM15d6HcWWqza1ZteLZxdJ/wWC/4NTvDP7K37PXjr9qP9hv4l/Ebx54f+Euh3vi74m/B/4qvoWt+J18FaVC114h8U+CvFXhrQvDFtdL4XsIpdW1Pw7q+iPcz6NbaheWmuS3lpBpl8AfxOUUUUAFFFFABRRXQeEvCviHx14p8N+CvCWk3uv+KvF2u6T4Z8N6HpsD3Wo6xruuX8GmaTpljbRBpJ7u+vrmC2t4UBeSWVEUEkUAf1Qf8ABp9/wTh/4ai/bLv/ANrn4iaD9t+Dv7IUlhrHh4X9sX07xJ8dtXilfwVaQ+agjuR4Fso7rxtdvBIZdN1qHwc00Zhv8H/Twr82v+CS37Bnh7/gnH+wr8F/2brC3sn8Z2Gip4w+MWu2aof+Ek+LniyG31DxjfNcKFN3Z6XcC38L6FPIok/4R3QdIjkG9GJ/SWgAooooAKKKKACnp1P0/qKZT06n6f1FADW6n6n+dJSt1P1P86SgAooooAKKKKACvAP2qP2cvh7+1z+zt8YP2bPinp66h4G+MPgbWvBusDy45LjTpNQtidK1/TfNDJFrHhzWIrDXtGuSCbXVNOtLgcxivf6KAP8ADS/au/Zu+IX7IP7Rvxi/Zq+KVi1j43+D3jnWvB2qt5UkVtqlvY3BfR/EOmiYCSTR/Euizafr+jTsP9I0vUbSb+PFfPlf33/8Hhv/AATh+3aX8OP+Ck/w00HNxpA0n4O/tGDT7bl9NuJnT4XeP9R8pFUfZL2a48CatqNwzyyrfeCbGMLFasR/AhQAUUUUAFFFFAH+hH/wZc/tA/C0fBr9q39mK41TStN+MUPxP0n4zWOl3U0EGreKfAeq+FNE8IXE2lRuRNqFt4S1vQB/aixhhYN4s092UC9LH+4mWWKCKSaaRIYYkaSWWV1jjjjRSzySOxCoiKCzMxCqASSAK/wlvhV8Wvid8DfHnh74o/Bzx94s+GXxE8KXgvvDvjPwTrmoeHfEOk3JRo5GtNT0ye3uUiuIXkt7q3Ltb3dtLLbXMUsEskbfpD8a/wDgud/wVf8A2hfhje/B74qftn/ErVvh/qmnPpGs6RoOn+DPAl9r2kzRGC60zxB4i8B+GPDXiTXtPvoC0GoWer6veW+oQySxXsc8cjqwB3H/AAcD/tEfC/8Aaf8A+CtH7V3xP+D2o6dr3gWDW/B3gGx8UaVJFPp/irU/hn4B8MeBPEGuWN3AWt9Q06bXtB1G10nUraSa21HSrSyvbeV4Z0Nf3mf8GrH7QHwt+Kn/AASW+Efwr8H6ppSePv2evEvxI8F/FHwvBNAmqadqPif4i+LPH/h7Xrix3C7bTvEWgeJrRrbVHjNtc6lp+s2MEzy6ZcRxf5TBJJJJJJJJJOSSeSSTyST1NfRX7Mv7Vn7S37InxEg+JX7Lvxe8e/CHx68A0+bUvA+qT2w1uxaRZRpOu6KyXOk+JdMadY5hpWt6dqNibiOKb7MZY0ZQD/b0+IXj7wb8LPA/iz4j/EPxFpPhLwN4I8P6r4n8V+JddvIrDSNE0LRrKa/1LUb+7nZY4be2tYJJJGJyQu1QzEA/4hH7WnxR8OfGr9q39pH4z+ELA6b4S+Kvx8+LXxJ8NaY0Qgax8P8AjTx/r3iXSLJoB8sJt9P1G3hMQ4j27RwK+tP2y/8Agql/wVA/a68LW3wz/a8/aM+LHiPwU4tL2TwDe6Fovwx8Ma0IHWawu9c8MeCfDfg7S/Ev2eWNbizn1uy1HyZ0FxAyyjfX5h0Af7UH/BKD9oj4U/tOf8E8/wBk/wCI/wAItW0q90G0+Cnw88Fa3o2mzwNL4L8Y+B/CuleGfFPgzU7SJt9he6Bq2m3FrHFNHF9psPseo2yvZXttNJvf8FOv2ivhX+y3+wb+1D8WPi9q2l2Hhqy+Dvjzw/p2l6lPCknjDxV4p8N6loHhfwXpltKwa+1HxLrN/aaZFbxq4jimmu7ny7O2uJo/8gz9kb/goT+2f+wjrGq6z+yf+0H48+Dza80cmvaNo1zYat4Q124gXy7e81vwT4msdb8IatfW0ZaK1vr/AES4u7aKSSKGZI5HVrP7Xf8AwUV/bX/bx1HSb/8Aax/aH8d/GCHQJZLjQtB1abTdE8HaLeSoYptQ0rwR4V0/QvCGn6lPCfJn1G00SK+mgVYZbh40VQAfF0riSWSQDAeR3A9AzFgPwzimUUUAFFFFABX9c3/BpV/wThH7Rv7Wuu/tqfEbQftfwn/ZNkt08DC/ti+n+Ivj1rlo76E0BkUw3I+HehSz+KbkIRPp+v6h4Lu0OCwr+UPwL4J8UfErxr4R+HfgjRr3xF4y8deJdE8IeFNA02Ez6hrXiLxFqVtpOj6XZQrzLc32oXdvbQoCN0kijIHNf7Pv/BLX9hfwv/wTr/Yh+Cf7MehRWU3iHw14ei174o+ILOMD/hK/iv4nSPVPHOtvMUSa4tU1WVtH0M3O6a28OaVo9izFbVaAP0JooooAKKKKACiiigAp6dT9P6imU9Op+n9RQA1up+p/nSUrdT9T/OkoAKKKKACiiigAooooA8T/AGkfgH8Pv2pfgP8AFj9nn4p6Wmr+Afi94H17wR4itisZngttasZbeDVNPkkSQWur6NeG21bR71VMtjqdlaXcREsKEf4qX7Y37L3xB/Yu/ad+NH7MPxOtXg8XfCDxvqvhee78iS3t9e0eOQXfhrxVp0cpMn9k+K/Dt1pfiHSmkO9rDUrfzAsm5R/uM1/DL/weF/8ABOL/AISTwX8Of+CkXw10Hdq/gUaZ8I/2hxp9sN1z4R1O9dPhr47v/KVEzoWvXlx4N1S+nM91cW/iHwpbAx2mknaAf59NFFFABRRRQAUUUUAFf6Un/BqX/wAEu/gJ4H/Y38Hft+eP/A/hvx38fPjprXi+48CeIPEmmWmsSfCvwD4P8Wax4JtLPwpBfRXEGkeIPEGreHtX1jVfENmI9Sl0q80zSY5baCC8S7/zW6/uh/4Nqv8Agvp+zp+zX8BLL9gv9tHxjH8KdD8GeIvEGr/Ar4u6tbXlx4JXRfGGsXXiPW/AnjG8sYLqbw3dWfijU9Y1rRvEF9ENCubPVrnT9QvNJl0yyOqAH9pX7a37Cf7Nn7e3wQ8V/A/9oX4ceHvFWja5pOoW/h/xG2l2C+MPAGvXFu6WHivwP4ga3e/0HXNMufKuI5LaUW19HHJp+q219pl1d2c/+Lj+0B8JNU+APx3+NHwL1y8h1DWvg18VfiB8LNWv7dSlve6l4B8V6r4VvbuBCzlIri50qSaNS7EI4G49a/1VP28P+Djj/gm3+yf8GPE/if4YfH74d/tN/GK70O9T4b/DD4NeIrXxvBqviOe2dNMk8W+KdAe88P8AhPw/ZXbwXGtS3+pJrBsknTSdK1C9C29f5QnxK+IHib4s/ETx58UvGl7/AGl4w+I/jHxL468VaiVCfbvEXizWbzXdavNg4X7TqN/cTbRwN+KAOJooooAKKKKACiiu1+G3w88X/Fz4heCPhb8P9FvPEnjn4i+K9A8FeENAsI/NvdY8R+JtTttH0fTrZCVBlur67ghUsyou7c7KoLAA/rY/4NGv+CcP/C+P2nPFP7dfxH0H7V8Mv2X3/sH4Yi/tvMsPEHx18QacWF9B5ivb3I+HHha8bVpUZVls9f8AEfhPUbWQS2Thf9KOvhH/AIJp/sS+EP8Agnr+xb8EP2XPCqWc994H8L2954/8QWsXlnxd8TtfA1bx54lld0S4lhvdfubqDSY7tpJrDQbTStLEhisYgPu6gAooooAKKKKACiiigAp6dT9P6imU9Op+n9RQA1up+p/nSUrdT9T/ADpKACiiigAooooAKKKKACvI/j38E/AP7SPwW+KHwF+KOkRa58P/AIteCPEPgTxVp0gTe+l+IdOn0+W5s5XST7LqVg0yX+mX0a+fY6hbW15bss0EbD1yigD/AA+/24P2TvH37Dv7Vnxs/Zb+JMEq+IvhL411HQrXUmt3trfxN4YnK6j4P8XWEblmXTvFXhi80rXbNWZnihvhBNtnilRflOv9Dz/g8E/4Jw/8J38Lfh//AMFGPhroPmeJ/hKun/C74+Lp9tmbUPhxrWpsvgTxjeiJBvbwl4p1GXw5fXLiW5lsPFel+Y8djoY2f54dABRRRQAUUUUAFFFFABRRRQAUUUUAFFFFABX9mX/BoZ/wTi/4XF+0H40/b/8AiRoP2j4f/s6tP4L+Dwv7bfZ638avEOl/8TfW7bzFeG4X4eeENQ3bXQGHXPFuh6hZzLdaRIE/kQ+Evwt8a/G/4ofD74PfDfRbnxH49+J3jDw94G8IaHZqWn1PxB4m1S20jS7VT92NHurqPzp5CsUEIkmmZIo3Yf7TH/BPD9jPwT+wF+x18EP2WfBEdtNH8OPCNpF4r12CAQyeLviDq5bV/HXiu5LKJmOteJbzULiziuGkksdMFhpiP5FlCqgH2rRRRQAUUUUAFFFFABRRRQAU9Op+n9RTKenU/T+ooAa3U/U/zpKVup+p/nSUAFFFFABRRRQAUUUUAFFFFAHmXxo+EXgX4+/CX4j/AAT+JujQeIPAHxU8GeIfAni7R7hVKXuh+JdMuNLvljcqxguoorkzWd3GBNaXccN1AyTRIw/xX/2+/wBj7x1+wb+118bv2WPH0c8mo/C/xje2Gha1LbtbxeK/BOoBdV8EeLrRTlPs/iLwxeaZqTRRvILS5nuLGVvtFrMq/wC3bX8WP/B33/wTi/4Wl8EPAv8AwUL+G2g+f42+BC2fw9+No0+23XWr/CLX9Ub/AIRjxLdiJWkmbwH4v1J7GZwjONI8X3N1dSpZaGnlgH+c7RRRQAUUUUAFFFFABRRRQAUUUUAFFFeo/BL4PeO/2gvi98Nfgh8MdGm1/wCIHxW8aeHvAnhLSYA2brW/Emp2+mWZnkVXFvZwSXH2i+vJAILKzinurhkhhkdQD+wf/g0B/wCCcP8Awsz4z+O/+Ch/xJ0HzvBvwPa9+HPwNW/tt1tqvxY17S1Hi3xTaCVSkq+B/COpR6ZbSbHiOq+LxcW8sd7oTbP9FivkL9gz9kLwJ+wj+yT8Ef2Wfh7FC2k/CzwbY6Zq+sR26283irxlfF9U8a+L71Blhd+JfE97qmrPGzOLWK5isoiLe2hRfr2gAooooAKKKKACiiigAooooAKenU/T+oplPTqfp/UUANbqfqf50lK3U/U/zpKACiiigAooooAKKKKACiiigArgPir8MfBfxp+Gnj74RfEbRLXxH4D+JfhDxB4H8X6FepvttU8PeJtLudI1WzkHDKZbO7lCSoVkhk2SxMkiKw7+igD/ABK/+Ci/7F/jT/gn9+2T8b/2WfGaXU4+Hniy6/4Q7XrmExJ4u+HWtAav4E8VQFUWBzq/hu7sJL+K2aSKw1dNR0t5DPYzKvxHX+kR/wAHeH/BOH/hdH7Ovg79vr4b6D9p+In7NyReEfi4LC233uufBHxDqmdP1i4EavPcn4d+Lr/7QFjQJb6F4r8Q6jeTLbaUm3/N3oAKKKKACiiigAooooAKKKKACv7f/wDgz5/4Jxf8Jr8SfiF/wUb+JWg+Z4d+Fzaj8KvgANQtsxX3xB1jTkHj/wAaWIlVSw8LeGNQg8Mafdxia1nvfFOuIrx32iHZ/HB+z98DvH/7S3xt+FvwC+Fukya38QPi5438P+BfC9ggfyzqWv6hDZLeXsqJJ9k0zTYpJdR1W/kXyLDTbW6vLhkggkYf7VP7E37KXgD9iH9lf4KfsufDW3jTw18I/BOm+H5dQWBLe48R+I5A2oeLfFuoRxlkGpeKvE15quv34VmjS51B4osQxxqoB9T0UUUAFFFFABRRRQAUUUUAFFFFABT06n6f1FMp6dT9P6igBrdT9T/OkpW6n6n+dJQAUUUUAFFFFABRRRQAUUUUAFFFFAHG/EX4f+Eviv4B8a/DDx9otn4j8EfELwrr3gvxdoGoR+bY6z4c8S6Zc6PrOm3UeRuhvLC7ngcAqwD5VlYAj/F2/wCCmn7EPi7/AIJ5ftq/G79l3xPHeT6Z4M8TT6j8O/EF3FsHi34X+IS2reBPEUciIlvNPc6HcW9nrC2peCy1+x1bTd5lspAP9ruv4/f+DuH/AIJw/wDC/v2XPDP7cvw40H7X8UP2Wo20n4kCwtvM1DxB8CNf1ANc3c/lK89yfhz4muo9chQBYbLQNe8X6hcSbLZAoB/mo0UUUAFFFFABRRRQAUUV7j+zR+z98Qf2qvj78Jf2dfhXpj6r49+L/jjQvBPh+AJI0FrLq95HDd6vqLxJI1tpGh6eLrWdYvGUx2Wl2N3dS4jhYgA/s0/4M9P+CcP9veLPiL/wUk+JWg7tM8HHVfhD+zuNQtvln8T6hZonxM8eaf5qo+NH0W7g8FaXf25ltp5tc8XWjbLrTBt/0C6+bf2QP2Yvh9+xn+zP8Gf2Y/hfaJbeDvg/4H0jwraXHkxwXOt6nBEbnxF4o1JIiYzq/irxBc6n4h1aRDsk1HUrlkCoVUfSVABRRRQAUUUUAFFFFABRRRQAUUUUAFPTqfp/UUynp1P0/qKAGt1P1P8AOkpW6n6n+dJQAUUUUAFFFFABRRRQAUUUUAFFFFABXMeNvBnhn4jeDfFfw/8AGuj2XiHwf438O614T8U6DqUK3Gn614e8Q6dcaVrGl3sDfLLa32n3VxbTxnh45GXvXT0UAf4r/wDwVS/YV8Tf8E6P24vjX+zLrUV7N4a0DX5PEfwp1+8Rv+Kq+E3iiSXU/BGsrPsSK5u4NOc6HrjQAwweI9H1izUn7Ma/O+v9NT/g7P8A+CcP/DSf7Imjftm/DrQftnxb/ZJjupPGQsLbzNQ8R/AXW7pH8SLN5SmW4Pw91lrfxdbGRvI07QbnxpcYLzCv8yugAooooAKKKKACv7y/+DPH/gnF9ou/iR/wUn+Jeg5isv7W+Dv7OQ1C24a7lRI/ij8QNO81AR5EDweAtI1C2dkc3PjixlAeFTX8XH7KP7NvxC/a/wD2jfg7+zT8LLFr7xv8YfHGjeD9KbypZrbSra9nEms+ItSEIMkej+GdFh1DX9ZnUZt9L027m52Yr/au/ZY/Zz+Hv7I/7O/wf/Zt+Fmnrp/gb4PeBtE8GaMPLjjuNRk062X+1Ne1IxKqS6x4j1eS/wBe1m5AButU1G7uG+aQ0Ae/UUUUAFFFFABRRRQAUUUUAFFFFABRRRQAU9Op+n9RTKenU/T+ooAa3U/U/wA6Slbqfqf50lABRRRQAUUUUAFFFFABRRRQAUUUUAFFFFAGD4q8MaB428M+IfBvivSrLXfDHivRNV8OeItE1K3jutO1fQ9bsZ9N1XTL62lDRXFpfWNzPbXEMilJYpHRgQSK/wAZr/grl+wRr/8AwTh/bs+M37ON5bXreB7fV28a/BnXLtZGHiL4ReLZ7m/8IXS3MgX7ZeaNGt14U1y4RVRvEPh/VRGojCE/7Qdfylf8HXf/AATh/wCGp/2LrP8Aax+Hmg/bfjJ+yAmo6/rQsbbfqPiX4F6s8LeO7CXylElyfBNzDaeObN7iRotO0ez8Xi3jM+pncAf5glFFFABRRX0x+xx+y78QP20v2nvgv+zB8MbV5/Fvxf8AHGleGIbsQSXFvoOjvIbvxN4q1GOIiT+yfCnhy11TxDqjId4sdNn8sGTapAP7Wf8Agzy/4Jw/YNK+I/8AwUn+Jeg4udYGrfB79nMahbcx6XbzJH8UPH+neajKftl9Db+BNJ1G3ZJYksPG1jJuhuwT/d/Xif7N/wAA/h9+y38B/hP+zz8LNLTSPAPwh8D6B4H8OWoWMTzWui2MVtNqeoSRpGLrV9ZvBcatrF86iW+1S9u7yYtLO7H2ygAooooAKKKKACiiigAooooAKKKKACiiigAp6dT9P6imU9Op+n9RQA1up+p/nSUrdT9T/OkoAKKKKACiiigAooooAKKKKACiiigAooooAKyde0LR/FGh6x4a8Q6bZ6xoPiDS7/Rda0nUbeK7sNT0nVLWWy1DT721nSSG4tby0nlt7iCVHjlikZHVlYg61FAH+M1/wWR/4J/ax/wTd/b2+MPwBWzvF+Guoai3xF+B2r3IlZNY+EvjG7vLvw7Ct1Kd95eeF7iLUfBmsXLBDcav4dvbhI1hnhLflpX+pB/wdS/8E4v+Guv2HT+0p8PtB+3fGz9jxdV8asLG28zUvEvwWv0hb4l6G3lKHuG8NRWdl48sWneRbOz0PxDbWUX2jWX3f5b9ABX+gx/wZ6/8E4v+EZ8FfEX/AIKQ/ErQdmsePBqnwj/Z5XULb57Xwfpl8ifEnx1YearpnXtfsoPBumX0Jgure38O+KbYl7TVxv8A4lP2Hv2TfH37cf7VnwT/AGW/hvBKfEPxa8a6dod1qa273Nv4Z8MQFtR8YeLr+KMhm07wr4Ys9V128VWV5YrEwRZmljVv9qj4C/BPwD+zf8F/hf8AAb4XaRFofw/+Evgnw94E8K6dGE3ppXh7ToNPhuLyVEj+1alftC99qd9Ivn3+oXNzeXDNNPIxAPW6KKKACiiigAooooAKKKKACiiigAooooAKKKKACnp1P0/qKZT06n6f1FADW6n6n+dJSt1P1P8AOkoAKKKKACiiigAooooAKKKKACiiigAooooAKKKKAKGq6Xp2uaXqOi6xZWupaTq9jd6ZqenXsEVzZ3+n38ElreWd3bTK8NxbXNvLJDPDKjxyxuyOrKxB/wAcn/gtj/wT21H/AIJu/t+/Fr4K6fp91B8JvFN23xS+BGpSrK8F58L/ABhe3lxpukpcyZa4uvBmqQ6p4Lv5JGE08+hC/ZEhvoC3+yLX4M/8F2v+CO1j/wAFX/hX8ELXwpqGk+EvjF8Iviz4aNr4wv1RGb4O+NNc0nR/i5pMj7c3U2k6PHbeONEtJWYz6l4YfSbXyZNdmkIB+OX/AAZ9/wDBOL/hA/hZ8QP+CjHxJ0Hy/E/xbXUfhd8BBqFtibT/AIb6JqSDx14xshKp2Hxd4q06Lw7Y3KCK4isPCep+W8ljrh3/ANudeZ/Bj4R+BvgH8Jfhx8FPhno0Hh7wB8LPBnh7wJ4R0e3UBLLQvDWmW+l2CSOFUz3MkNss15dSAzXd1JNczs80rufTKACiiigAooooAKKKKACiiigAooooAKKKKACiiigAp6dT9P6imU9Op+n9RQAhByeD1PY+tJg+h/I0UUAGD6H8jRg+h/I0UUAGD6H8jRg+h/I0UUAGD6H8jRg+h/I0UUAGD6H8jRg+h/I0UUAGD6H8jRg+h/I0UUAGD6H8jRg+h/I0UUAGD6H8jRg+h/I0UUAGD6H8jRg+h/I0UUAGD6H8jRg+h/I0UUAGD6H8jRg+h/I0UUAGD6H8jRg+h/I0UUAGD6H8jRg+h/I0UUAGD6H8jRg+h/I0UUAGD6H8jRg+h/I0UUAGD6H8jRg+h/I0UUAGD6H8jRg+h/I0UUAGD6H8jT0BBOQRx6e4oooA/9k=;" parent="1" vertex="1">
          <mxGeometry x="430" y="310" width="122.57" height="120" as="geometry" />
        </mxCell>
        <mxCell id="DkvLvzVgcHRsmgebOkIh-2" value="" style="sketch=0;points=[[0,0,0],[0.25,0,0],[0.5,0,0],[0.75,0,0],[1,0,0],[0,1,0],[0.25,1,0],[0.5,1,0],[0.75,1,0],[1,1,0],[0,0.25,0],[0,0.5,0],[0,0.75,0],[1,0.25,0],[1,0.5,0],[1,0.75,0]];outlineConnect=0;fontColor=#232F3E;gradientColor=#F54749;gradientDirection=north;fillColor=#C7131F;strokeColor=#ffffff;dashed=0;verticalLabelPosition=bottom;verticalAlign=top;align=center;html=1;fontSize=12;fontStyle=0;aspect=fixed;shape=mxgraph.aws4.resourceIcon;resIcon=mxgraph.aws4.key_management_service;" parent="1" vertex="1">
          <mxGeometry x="800" y="40" width="78" height="78" as="geometry" />
        </mxCell>
        <mxCell id="DkvLvzVgcHRsmgebOkIh-11" style="edgeStyle=orthogonalEdgeStyle;rounded=0;orthogonalLoop=1;jettySize=auto;html=1;" parent="1" target="DkvLvzVgcHRsmgebOkIh-10" edge="1">
          <mxGeometry relative="1" as="geometry">
            <mxPoint x="535.7300000000002" y="210" as="sourcePoint" />
          </mxGeometry>
        </mxCell>
        <mxCell id="DkvLvzVgcHRsmgebOkIh-10" value="Role" style="sketch=0;outlineConnect=0;fontColor=#232F3E;gradientColor=none;fillColor=#BF0816;strokeColor=none;dashed=0;verticalLabelPosition=bottom;verticalAlign=top;align=center;html=1;fontSize=12;fontStyle=0;aspect=fixed;pointerEvents=1;shape=mxgraph.aws4.role;" parent="1" vertex="1">
          <mxGeometry x="587" y="118" width="78" height="44" as="geometry" />
        </mxCell>
        <mxCell id="DkvLvzVgcHRsmgebOkIh-12" value="" style="edgeStyle=orthogonalEdgeStyle;rounded=0;orthogonalLoop=1;jettySize=auto;html=1;endArrow=none;strokeWidth=3;" parent="1" source="DkvLvzVgcHRsmgebOkIh-1" edge="1">
          <mxGeometry relative="1" as="geometry">
            <mxPoint x="480" y="310" as="sourcePoint" />
            <mxPoint x="480" y="250" as="targetPoint" />
            <Array as="points">
              <mxPoint x="480" y="290" />
              <mxPoint x="480" y="290" />
            </Array>
          </mxGeometry>
        </mxCell>
        <mxCell id="DkvLvzVgcHRsmgebOkIh-14" style="edgeStyle=orthogonalEdgeStyle;rounded=0;orthogonalLoop=1;jettySize=auto;html=1;" parent="1" source="DkvLvzVgcHRsmgebOkIh-13" target="DkvLvzVgcHRsmgebOkIh-10" edge="1">
          <mxGeometry relative="1" as="geometry" />
        </mxCell>
        <mxCell id="DkvLvzVgcHRsmgebOkIh-13" value="Policy" style="sketch=0;outlineConnect=0;fontColor=#232F3E;gradientColor=none;fillColor=#3F8624;strokeColor=none;dashed=0;verticalLabelPosition=bottom;verticalAlign=top;align=center;html=1;fontSize=12;fontStyle=0;aspect=fixed;pointerEvents=1;shape=mxgraph.aws4.policy;" parent="1" vertex="1">
          <mxGeometry x="700" y="150" width="78" height="67" as="geometry" />
        </mxCell>
        <mxCell id="DkvLvzVgcHRsmgebOkIh-15" value="" style="endArrow=classic;html=1;rounded=0;entryX=1.004;entryY=0.675;entryDx=0;entryDy=0;entryPerimeter=0;strokeWidth=3;" parent="1" target="DkvLvzVgcHRsmgebOkIh-1" edge="1">
          <mxGeometry width="50" height="50" relative="1" as="geometry">
            <mxPoint x="860" y="140" as="sourcePoint" />
            <mxPoint x="560" y="380" as="targetPoint" />
            <Array as="points">
              <mxPoint x="860" y="390" />
            </Array>
          </mxGeometry>
        </mxCell>
        <mxCell id="DkvLvzVgcHRsmgebOkIh-16" value="AWS-STS" style="text;html=1;align=center;verticalAlign=middle;resizable=0;points=[];autosize=1;strokeColor=none;fillColor=none;" parent="1" vertex="1">
          <mxGeometry x="810" y="115" width="80" height="30" as="geometry" />
        </mxCell>
        <mxCell id="DkvLvzVgcHRsmgebOkIh-17" value="" style="endArrow=classic;html=1;rounded=0;strokeWidth=3;" parent="1" edge="1">
          <mxGeometry width="50" height="50" relative="1" as="geometry">
            <mxPoint x="560" y="420" as="sourcePoint" />
            <mxPoint x="890" y="80" as="targetPoint" />
            <Array as="points">
              <mxPoint x="1140" y="420" />
              <mxPoint x="1140" y="80" />
            </Array>
          </mxGeometry>
        </mxCell>
        <mxCell id="DkvLvzVgcHRsmgebOkIh-18" value="AWS Account" style="points=[[0,0],[0.25,0],[0.5,0],[0.75,0],[1,0],[1,0.25],[1,0.5],[1,0.75],[1,1],[0.75,1],[0.5,1],[0.25,1],[0,1],[0,0.75],[0,0.5],[0,0.25]];outlineConnect=0;gradientColor=none;html=1;whiteSpace=wrap;fontSize=12;fontStyle=0;container=1;pointerEvents=0;collapsible=0;recursiveResize=0;shape=mxgraph.aws4.group;grIcon=mxgraph.aws4.group_account;strokeColor=#CD2264;fillColor=none;verticalAlign=top;align=left;spacingLeft=30;fontColor=#CD2264;dashed=0;" parent="1" vertex="1">
          <mxGeometry x="970" y="500" width="180" height="140" as="geometry" />
        </mxCell>
        <mxCell id="DkvLvzVgcHRsmgebOkIh-19" value="" style="sketch=0;outlineConnect=0;fontColor=#232F3E;gradientColor=none;fillColor=#3F8624;strokeColor=none;dashed=0;verticalLabelPosition=bottom;verticalAlign=top;align=center;html=1;fontSize=12;fontStyle=0;aspect=fixed;pointerEvents=1;shape=mxgraph.aws4.bucket_with_objects;" parent="DkvLvzVgcHRsmgebOkIh-18" vertex="1">
          <mxGeometry x="105" y="32.5" width="75" height="78" as="geometry" />
        </mxCell>
        <mxCell id="DkvLvzVgcHRsmgebOkIh-20" value="" style="outlineConnect=0;dashed=0;verticalLabelPosition=bottom;verticalAlign=top;align=center;html=1;shape=mxgraph.aws3.s3;fillColor=#E05243;gradientColor=none;" parent="DkvLvzVgcHRsmgebOkIh-18" vertex="1">
          <mxGeometry y="32.5" width="76.5" height="93" as="geometry" />
        </mxCell>
        <mxCell id="DkvLvzVgcHRsmgebOkIh-26" value="" style="sketch=0;outlineConnect=0;fontColor=#232F3E;gradientColor=none;fillColor=#BF0816;strokeColor=none;dashed=0;verticalLabelPosition=bottom;verticalAlign=top;align=center;html=1;fontSize=12;fontStyle=0;aspect=fixed;pointerEvents=1;shape=mxgraph.aws4.role;" parent="1" vertex="1">
          <mxGeometry x="610" y="640" width="78" height="44" as="geometry" />
        </mxCell>
        <mxCell id="DkvLvzVgcHRsmgebOkIh-49" style="edgeStyle=orthogonalEdgeStyle;rounded=0;orthogonalLoop=1;jettySize=auto;html=1;entryX=1.036;entryY=0.761;entryDx=0;entryDy=0;entryPerimeter=0;fillColor=#d5e8d4;strokeColor=#82b366;" parent="1" source="DkvLvzVgcHRsmgebOkIh-27" target="DkvLvzVgcHRsmgebOkIh-26" edge="1">
          <mxGeometry relative="1" as="geometry" />
        </mxCell>
        <mxCell id="DkvLvzVgcHRsmgebOkIh-27" value="Policy" style="sketch=0;outlineConnect=0;fontColor=#232F3E;gradientColor=none;fillColor=#3F8624;strokeColor=none;dashed=0;verticalLabelPosition=bottom;verticalAlign=top;align=center;html=1;fontSize=12;fontStyle=0;aspect=fixed;pointerEvents=1;shape=mxgraph.aws4.policy;" parent="1" vertex="1">
          <mxGeometry x="780" y="640" width="78" height="67" as="geometry" />
        </mxCell>
        <mxCell id="DkvLvzVgcHRsmgebOkIh-30" style="edgeStyle=orthogonalEdgeStyle;rounded=0;orthogonalLoop=1;jettySize=auto;html=1;entryX=-0.011;entryY=0.429;entryDx=0;entryDy=0;entryPerimeter=0;strokeWidth=3;" parent="1" source="DkvLvzVgcHRsmgebOkIh-28" target="DkvLvzVgcHRsmgebOkIh-18" edge="1">
          <mxGeometry relative="1" as="geometry" />
        </mxCell>
        <mxCell id="DkvLvzVgcHRsmgebOkIh-32" style="edgeStyle=orthogonalEdgeStyle;rounded=0;orthogonalLoop=1;jettySize=auto;html=1;strokeWidth=3;" parent="1" source="DkvLvzVgcHRsmgebOkIh-28" edge="1">
          <mxGeometry relative="1" as="geometry">
            <mxPoint x="410" y="360" as="targetPoint" />
            <Array as="points">
              <mxPoint x="190" y="360" />
              <mxPoint x="410" y="360" />
            </Array>
          </mxGeometry>
        </mxCell>
        <mxCell id="DkvLvzVgcHRsmgebOkIh-28" value="" style="sketch=0;pointerEvents=1;shadow=0;dashed=0;html=1;strokeColor=none;labelPosition=center;verticalLabelPosition=bottom;verticalAlign=top;align=center;fillColor=#505050;shape=mxgraph.mscae.intune.user_group" parent="1" vertex="1">
          <mxGeometry x="150" y="530" width="80" height="60" as="geometry" />
        </mxCell>
        <mxCell id="DkvLvzVgcHRsmgebOkIh-50" style="edgeStyle=orthogonalEdgeStyle;rounded=0;orthogonalLoop=1;jettySize=auto;html=1;" parent="1" source="DkvLvzVgcHRsmgebOkIh-29" target="DkvLvzVgcHRsmgebOkIh-26" edge="1">
          <mxGeometry relative="1" as="geometry">
            <Array as="points">
              <mxPoint x="491" y="610" />
              <mxPoint x="649" y="610" />
            </Array>
          </mxGeometry>
        </mxCell>
        <mxCell id="DkvLvzVgcHRsmgebOkIh-29" value="" style="shape=image;verticalLabelPosition=bottom;labelBackgroundColor=default;verticalAlign=top;aspect=fixed;imageAspect=0;image=data:image/png,iVBORw0KGgoAAAANSUhEUgAAAEcAAABJCAYAAABvujtvAAAgAElEQVR4nO2813NkR5bm+XP3KyJuCEQEENBAJmQKpE6qJFlkFau6q8dmZ9e2Z/Zt/7s124e16dmZ3pmu2i7BapLFZDIFU+sEkNAiIELHVe77cANIJGWxx2yXZbYOCwQQEfde988/P37Od84NYYwx/P/tW5v1/3UH/rKmj/wGqZP5DIVBIFBCEQMRILoP2X2Y7o8yyesYmZxE8Przt7S/EnC+owmBAfyjL/E6QPrw1R+/QMRfw7I6YEzYfZbdgSodgwEZaTAGtCESBl9BwhmNi4UtFbESGCHQSAwCR3dJI7/7un+VzBEItNGEYYgJI6LtXdqdDtVmg46O6UgAQ4ymP5NnsNCL6s1hbAfE96Dx9ev8NTDnoIuxEBgMVugTtNuInX32VtcpvHhJY20dubmP6fhkOhGhACfjEQ32oSbGUFMjiP5e4tERtGOhtMCW38+NvwrmHIAjgHarSby7w/ryCnv3H7O+sIC685B2vY5bbeEYyMSCSIB0bHYdSbrci3dmlqET07gXzpAZGSbrZcF1sO3Ud173v4s5Rw8V4nvMPvywPfyBw4Ogg+y0WVlapv9f7vDi/kNmbi1Qqe2xnwtQ6RRBIYNwHUJHoTTEfoC904S9Bq6WDBfKBGdnyF++iHrjJLKvhBke/M6+/6uYY75lLFprBAIhxeFnMAYhBMYYxPeBIwAjvvb/kYuYGN/3iZdW2Lj3gKXf/4Hl+QWkzpAbKDFy/hj5/jLq2AikUiBFcnzgw9ImO89fsv18kfsbG2x+ss65WhXPCRk4f4a41IPlpjDdfguSHdBgfjw4BogBaZIHXTsgjEAYgRYgBCSuiEDp5II/eNKj4EkgNqAALQhaTdq1Kt5/+y36s6sMXX/O8VKJzb97m9Erb7F7aQZRKOLkMtga7ECDEmArgr0qZrtC8cFTdm9+xew/f468eouV7RUK9TYqn4aBAaJ0GgEoo9AYfKF/HDgH/T/ghjEaISRCJCAhXr13OOni4JjvBsi8dvbuawqMNoRhiL+6yosH91GfXqP6cpXS9HHGf/4Bgx9ewZmeome0FyNlwlpt0Eog0BgpsItF+rwMZHvwBvpxsXj0+ZeszC/S+/uPsY8PMurl0CkH2d3JBKAQ/33gaKETEurEOzUSpBEQGw6WcdB9lt9jkzSgj6w7ARijCeOIVhyQefGcvU8+ZeLOIpOZHAsfvY35t78kuHgay3Fpk5AsFRu0gNDuuoDGEEkLbVnonMf+WJEex1DLS079Q532rQdUPrnKSKmfTl+GlHA4WFzyx4IjDhEyCSW0SDoQafT+HnGjjh1EaD9AxroLSvdY+d3+hQTEEeMupcQICVGI1elQ/fRLgut3WEtbTF65zIkPPkAcO0bWdtH6YH2DlskmofwQ9uqYehPRDrECQ9zjUO7J4c3OMBsHuBs1rv3pE7hzDzF+DHlqBOXlwLIOx/oXgXO4lZqupTSJtTSxIAwi9hsN9P2HVO7exa5UMS0fN9JIwO66t9r6bnC+bnIAlGUjhGC/Uadw/Ssube/y/PI5oisXURfOQT4PJlmughiBJBIQ+W2ayxt0Hs7TebSArlRxGh3ax/opnpgm+vkc4dxx0h9eYW9pntmXa9Q/u4b/4UVyw8NQzBwC8+MN8oFtMQITG6g02L37BP9Pn1C7dZ16s3UY1wCoLjg/tNUf3ay01kghMAjCKCLdrNJbTJO7fAb7zCxOTz6xcYQIDA4aacD4PvHSKv6fvmT9q/t0Hr+kVq/SqTew81nGhkco+f+GvnMnyc5MkpmZwF1aZXdthWhhkb6eIrqYTJf4scsqGQXEwmDCmHq1Qf35Ci+u3qf3z3c4WdlHDxSR2Qzaksku1l3FUr86/ug+fRgSHsVOANoQRyFCKoLjQ3gDZZrvv4WYOtZdq4Yk2jJYhOggoLWzQ/DiOfXPrhPef8RYM0L0ZGgXMoidGvZaheeFFGmjcM7NYk8fo3T1BrXdCvHqOkzOdOM48202x7w+jYKujyJen90IqDVozz+j9fvfM/abT9lMNan+fJrBdz/ELpex7B6EUGgitImROuFSbAuUEFg6IhaGQGoOYmgDaGMO9zov0FhG0sxoRM7DmZogyntIGQMGZWzAYCINgUWwI9m4v4S894COkvDRe5TPn2Y/Y6Nv3uLFtWsEd29jD5RRE+McK5YpuDmqm7vEm1WodQ6nTJhvLKvX96NvkEYcDEPi1+os37+Lf/Vzzrx4QeeDCVJXTuF89Daitx/iLGAh8LsG1wIhUI5GCDA6BKlRKk7ANwoNSGHQunv9SGIikF4EFmjbIkJiEQOJT4LRCKMQSPyaYfPZCpNbFcrn58i+9xbulTfIZR0sGbK4/ZL053fJLiwT15qkpUPKdlGxwLQj6MSvwOFH2JyjRjNSEULEZPyQ/SBg0xJ4kUOpmcathZCJIGWBsiFld1UncwguxoBwEup+bR50154JIRJv04BlhcQY8liAoNP9bNw9nysjkBoR1AiiOjVXk0pb5G2JZafI2zlQOXplD4sYgtjHRFVi0cRIiCW0lT6y9pP2r/JzYjTCsRkdHadnegaxtsfzrR3MjTukiiVS9Ro9/RFOyiNMSYQCchbGgBMaYgN+GGKEIDJgK0XWcQmA2JK0Wj5+GGIjUAgaqoORUJYpHMsi9rJA1xNHgNYQhbgpm3KpiJt22dmrUHg5T2ZohM18gczKBmvL61hKoApZ7Fwa06kShiFxHIOUYKl/HTiHO5ABJ7bRhRLijbPkw5A1R+Heuk38yS1Y3aA4OoooFJGOg3diFjU7A5fP0K5WsZZWWX34mOEHz4mUwO3N4l68hDl7lgyG9v4uhas3MU8XiOKQoN2k4GbJjR3H+cVlzOBAl40WIgaNoa4kKuNgTw2Qf+ssSw9vUXm8QM//9l+wr98na0kqi4t4G5vsnzpJeOkN7PQg9dY+1Y6Pdh2C/hw6a3FgAX8UOIbuaiDxdqXjku/vg8sX8LRB2GnqN++yU9llZbtCXSps1yVYX+PYxgZbKqbdqGMePuX5rducf/SStoyxi2m8eoP9WDPk2mytr2BdvYZ88JRmq4aJQ2Irz9DQAjqjmf7Z+4jeLMLqOvkmRgtQysIrFjh28gTZd95iO3Zx5ytsPXxEJ+pgWzazIyPoK1fIzMwiUxmWVjboabZIeRko9CBzWY4urB8BjqEpNLaRpIVA25KIFOpYL37xPKo/z/ZoP7W7N6lvrpHbb9Hc2aW3EmM93WFuaYVmvcH+8iqmsskTO6KY8rBebCJ3dpmbf47nePQvb3Bvc409o7G9DB0lyK9v0NzYIswKjJdHDuch7YFtI0yMG6dxpEJaBsZH4d/9Le7AEPXrD9hdX0O1fdT0KN7sND0fvk21mKN0/wnm9k3qrQbD4+M0BsvgpV8b84+2OaYbOhwwCNsm21tEzHnM9AzA2ROYzTVEPUDff8je7SU2V9dZqC3h+x0KTpqJ0REufHAZx3KoXL3OwrOnPPriKnkrjd0MyY4MMHvuDNnJKQhDxJ1nvLh9j0dLSxy7/xD3yknyw8PduEMmDmnXIKpMhoGpKQacPIxMY2o1RBTDUAkx0Asjvaysr1C5f5+NpWXO9RToO36c7Ojo94NzECborumVAAJCkZAto82hKC0MWAYQLuDCYIgoe/gnJ6k3fTLVNvX3P8L/w+95+MknlO89RqXS3Htjlnc++gX1S3Nkpc3a+HG2/vljBr+4yzNbkj4zSOmj9/Dfe4vOYJmma1P4x4952tql5/Y8ztVH7E59Qe5n78N0P8IobGFARxhtQEhkqgATeTg2QSeog9C4ShLFEdbSJtWvHlD6l1u8tdHk4QeXGPzbX9AanwEvg9ulQSSCb2fOocInXu36AoM2cXdj0KAjhNEIqRBKYTkghEXKc0hl09BTwBscgHqVyMTYRpEtFhj76BLH37kC02NgJIV0iclYgC8RjSojZ04xfOUdmDsJPTmMpRCXLjGzuk6wWmd5bY35a9fJOC7SvYCX68F4Cte2kZZN13MFYkwMruuBjBB+wN72Do2Hj7j/5XWOLy1R7snjnT5F+vgxIsf5RiLidXCM6oITJTpN3E1wRH7Cp6iBbvvI/TY6CBBaY9IpRMom9mykLZBOHumkiVI2UUoi3jqLHO2FC2cIM2mKk6PQP0DsuugowhkbR/8yTeP4KD1+B290FDM+jshl0V3RzDp7go72yaw3WXnylMF/voW92ob9PezLF2m+mUNiMFFwOJRQR/gY3BDiVoCaf8nK7TsU/8sfOftikdWcYfLdOZrvnodTYwilMIjXAPp25hy4fFoTtdvU93ap7e1QXXxC0Gijd2o0m02MHyK9FDKdxitm6O3vo3R8imxfP+RLWEpiuymGBwexs7nEgPbmk2etMdqgUg6Zch8ZJRgQAnoK4FhgNIZkKahUmpnZE6Tffxc77bFV3+P+i+c0f1djYn2TxZUFhsv9lIolLMfGCAiimMBE6O0auysbtB4/Z/X5PP0vlxjP5zn+xgyFX/2SvpkpTCqF6GZGj0YHhwK7OdR7wTc+URSh1nepbm2hn7xg/cFDTt64RbXRIqq36PgBsdYIbDKpLPQWyA4Ooi9N4kyOoS6cwynkUXYRkU5TTRkUglTXlkkTfy1KkYcdO+qNG0BGIDREm9s8fXCf1H/7Iwt379HzfAWUpDDeT+/IMHJyBBwHnbKR7YCgVsNd2SSYX6JdqeJh83RimKGz51j/9x8wOXeSdF8WSyokaSQCx0AivwUH4BwgFhNHGhO02N3ZQX95n4d377Jz6w5+tUr/+iapTBbP87BcByMlsR8jIthvt/EjTbNgM3RslMLblxmbmyMzfQqrt5cga3Upq8FopIkQUhzufrILjkFgXvsbZFegF6FGVyrIFyvUbt+hfu0r5p8/p7G7jnYsAtfCclOEwqBijYg1Vr1FKtQM9w0yVh7A/pufYZ8/T/TWCeyshy8O4qlEQ7a64AhzCE43UNcNGq0acnGTu7ducfo/fcLiwiLZRov8+DgvT5wkO1gmLOdwcmmMZ6FaEbrWIVqu0F6tYN2/g6zto0o9HDt/nta/+1tKJ2exJsogFagIHYVEVpToQsIgjY2KrS5ljpYBKBCKjkqAdLWAOCZsd9jd2cN/ME91eZnCvRvU1jew9uqIMEK0OmDbuLkM+6UiplymMDVBaWwc/41pskNlUukeQhNgY4MQRKQO+QsaGQdYB26v1hpCyc5mjczn16n86RNuPl9EKAt15TJjF85z/o0L2OV+yGXBEmBJiDX4Puw2aa5s0h7v5cXt2+w9fkLj2lWsFBSaDUzpPUQ2A5YDSoEJodNBtRuJLGPnwXPBSvRjISVEMbHfwWrWkMZgSn0I18FOCwbG0sT5LKPnppBzU7C7S2evSme/hgkihG1hex7lUpHUwABioAzFErlSGmwFRqJwj6SHv6FFYhkdg5IEYUBrr829+/O89w//xNijx7TGZzl+6RL1v/8VwdQEarQIwkHjEIcxQqhEklAheriXcGaI1HiZ/rOzjPzH/8rqrds4f/yYaH+ftfEBRmZmUF4OrcCEHfY3NvAf3aGx06KvdIzsmUmcoTyWpQi1T9josPpyCXn/KW4Yoa+8TWl0hExPBoBOr43uzZPtvUxsCTpR2NWUbQyGjja4jk3suKhDRaBrUrqCljnIfYiDwOFAu7KxkEm+qdNsoe/cJ/rkKjcWVyn0DtD7q58x/P57MDcBtt0V3kK0ZaOEABMl3mBssC0HRzpwfISRUh5HazY8Se3qLRbuPcb/3WeMxBammEV3fMTmFo2bX9H+3cesb1SIsyWcv/kA62dvwlA/ndo+8sFzqtdvUP/4M/JCkN7eoXThAuLN8+BlyNhpjNCItIUlFQXX6YpO39SrjTGJXvQaQb4/DWtpQEYhfrtD87MvcO88JJQux85dIv75OzA7STsV4bdadHZ2cL0sbt7guimUrTBaI4TCmKTEI+5JEeRtnPcuUxA+uY0GLx89IfzzTXShn8XRNKbaJPrqMZXrXzH0+5tkalWwbVbDEBnHlE7PsOnXKfzpc+qf/Jm+uw/o0ZqNZoC/XmHXsvD6+pA9eVwvjS452EhcYSXLUTiJjyQOko+JlnSwC/5AivGQQFaoNalKFX9xnfDxC4rbu+ycnKH/5x8iir3ovSriwSKN1U3crQ5OIU9qoA85MgATIwjPTYQtkfjREou0tKC/n74LF7DfWGOvWiW9+ITanxTZvXmkgaVbdwn3q6z2psgPF2lWm7SePGLUbyIfjJOKAjZeLCMiTeP0SfbDgGCnwtK1a/R0GqSHhjBSogpF2pcu404dh4EetDZIqZO01QEUQv4gS15xKTlGJMwxhPs1qktryOUVhmIDc3PoudP4fpOVJwvsf/oZWwsrlF82ENk0qfEymTMzFH91hdKpk5B2kk4YXvmYjosa6Mc6cYLi8io9f3rB3u2vUM8fghDY+zXGBwdx37pE78AI9ZUt2re/IvX4CbtPHqEtSTpbYubEafTMcXy/TfzZVTZXV6n/bg271EfQ7iB7+2i2JX1uDj3cizAxdMvh5Dd83h/XLFsIVKtDc3mFuN5ipH8Q69QUylM41x6x8+lnVP58B2nZbGSzqPo+Qzc22F5awvLblFwPfW4WqRTog9QwGGGRzhawzp/GadUI/X32dvdIRW2wbIIzZ8nPzJD94EMy5TLsbONPjLF69zEb+3sUc3maM0Pkf/Y2I9PnaTZbVMsDNJ4+xjx5xi6CyPKwHA9P+4lMikGIpMILqdAk/REmSQ0dlMMlitYPM8kSCIJmi531DXJxTGZgAN1boFHdo/HwEfsv5jlu55g4M4c+cRyxuYW+dp0HGxUqX93DOTGJd6yfnsIg4oC+Jsn8KNuB0SGGz50l66WJdipYYQdSKXSpgD01gZw5CUqQKucYTBfoHT3B1P4edi7P9myJntkxZN8YdlMzEIekJsbxzp7H1BrojsG4DsHsFDqbodaoQRTjSItQSXwJnlB40kHa1o8uDbR8HZFu+niVOkQOOAWyyqZeqeA9fEpps0Ll7cuc+vUV/A8vYa1WqJYztP/4Kf0vdsks7yC3q5Dtw7iSuOtvK62RCCi5lN84gbg4C1EMkQYMsS0Rlo1UNhiDyqSgNIA+M40bxgghGXUlyrGQRuN5ivaZKXJzx5HGol2rU9gzhPV9CroFu1v0rD5Ha4FSNngZjJtB9BcglwadOiL2081fkMQlgOxWmb5ahAYrjCIyWmObRAvBdrGkoN1somp13DhGD/ejjo9CXwEiTerYGF6pSPxyHn+/jttpgzlIbSa/hKJLb4NwFQgneV93t1UFQhtk3L2ukEn63XMT1scGaTTGaA66FqcdwjgkxGK90mbx2RKba8uwtYTfbBDvbKIjjSdtRL4IuRLu8QGKU2MMjE/SOziI46USPepIHPedzHG1ANtCeC6x1QBToYPGpFxkvkSwtUNpdQ2xsEymrxfml2k/fEG0U8UvZKDgITwHlEGjUUYiDETSYISBOMAYjVxfwxiDHSSxjH20F0aAEVgGLGPAcZIipLIHjpcgHmqy2z5rS8sUHz2iOr9A6foNCo06neo6gRbUI4HRBiEVjpI4EizPY2hwgPTZN7BmT6MvnkWMDCM9DUKgZRJwH7iAr2nIlqXAdXDSKVrGQKNGHIYUe0uk+/sRL56x8PgJ6WKRjtQEL9doPXjI3s4OI4Pj9I2OogsFtFSvzYMx4AcB7fo+nU6brVv3MFrjBRpt9GszpozAMgJlwDbgS4GXyWCdGic7NkQKj3q1QW1hnbu375D64gs2l5eZW1omm8uQUxI7m2MkX8ayLIIwwm/WCRpVqju7LG5vsbVSofxsgbhRY/btt8lOlVGOhVCv0jEHVWiH4NiOA0MlwqkRIiumsrOO2N5mYG6O8Ndv0bAauJ/c48VvPyP/T38gRhJGkB7qp/l37yEunEf2jqJVTEx4GF3bQhFEMaUHz3n24CEn//f/SqNepxL5KClf22AFERIfaSxELDFWmp5T5+F/+SWOk0KqKvXnLxj+h99Qu3GTxuoS4/1lNq/MMHjmHPtjE/T1DeAWR3HcFKbt09pZp13fJfXsGZX798g+WKD9xz+QfvYE7+Ej/L//JelTs8hyH1EYIGz3tSWlBVg61kjbodTfT6evj0ajyd78PP1zczizM7wTRYRRlo21FczeDsp16e0fpuf8GfQvPsQMHRQcdmMUYzBaE/odOp0OQWWX+cdPYHkFx7YQuTRSKWypXpkoIgQKZSysWCCw0Y6F5djEu7usryxz6/Zd+q9+gRPFTM3N0Xf6FJPnT2CNjTN4fBoTxARtQbNRx8vmKUzPoHUbMTREOD6CPfCY9dv3ebq5zpMvr1EpKi5EEc6bF0il04d61ms2J0CTKmVwJofJj02zfe8B4Ze3MbNnCP7Hi+iJEv7AJO21Vdq1KiLtEo8N0J4ZwUwPUiIkzRbgIlCEwhBJUG2fvfVNRm88JnfjCc8zRSZnZ2lfmk7om7JRGtIa2tKiqlLYJsLWGmPFWAO9jA330ahXGf6nTzA3bvGwA5PTp1j6X/8D7pkzmJljpGwBQYvdR8/I3HxEY3uX3Ngk+s0ziBNTBKem2XzzAoXpR1RnJyn953+ksfiSgf/0W3K1iMXBMpOz06hucVU3A01MIjxgHJdif5nCiVn2llfZWd+gcfMm9VMFRmdOkLlwnvLZ0xAFiYSZtolcRdsYpIi7VRHJQwBxEBHt7rP68AmdRw+o7+4wOneR0++9D796Cyw7ufJBhCwtUA6YOJFAbI0JW+jNDebv3kc9fkxcq3Py3Q+YeOMy4eWL2AMDBLZBGEPYCaisb7J49RrPF17yxtw5psf7YGoQS1r0eWnc2SlO9fVCFDL/8ccs3LiD+9mfWbw4TcHLUBgdRlnW4RgEYLkosMEbHsS8fZnm/h7l//wb9v58g44riH9tE126jJXOgOp0DaiF0pps0CGyLHyVxqAxxNgBNDar5P/wJfp3f0A/vM2sZbH6wc9ovf8+3okJjPvqDpdviNhRBDJmfXuVzBerVD++QX2rzuTwJK3/4ef4ly6gpvqIiLBMO2GrTpPxFccrDdobFTLH9pFtn1gn1ayeAdOXJSx7KOtD1tIhg7tNll8sMPl/f0GfXSQaLiBMCmVSXREOrKSuUOAqG86c5lhlm53b95lfWaV57QYF6RD6mtL4CGo4h+O4JDJHlOSrEQijIQzotBv4C7vM37qH+uQzlu7dR1kOM5cuUn77El5/ESMMRif1e7IbJicCoEBojdAGOm2aWzs0ns1TXVwmUyxw8p03EXNzqMEhosNqJwVIYqGJpSESScWEEXwzPDAGSwjEwBCzZ86QPb3E+vo6K/OLTDx4TP2D0xTLAxh1JFeuhUiKE9GogQL67QsMVmos/+53HLv1mNrL31Ja2IU3LrD29iw9vSVUIQ9KEAiDjJKSM/aqbCy9pPyna6Q++xwxv8b7tsPuv/kl1ke/QE2XwbOInRBjDBGqW84qiBAEAlKCRCdqB8iNXdJP1zi52mDrF6eJ3nkLNTiIyqSTqoqDMQMtFdFRmkjFhCrGiBgpdFILfViPlVSaqXSK9MgIzpsXYHUR78kGnSdLRGtb4OXRBQ9hupVdxiSeqJASjKa/3Iv68F1Ou4JAOSy+fMn67Vtk1pfYfDzK0PAwXrmIl83hC4P2A6J2h3i7wur8AkvPFon2avQMDnDq/HlG/u4j7FOnwMuCYyexstY4UnaThUcqOIAQjdVsU1/bZGdjnVIuw/DsJNbkOFYqBfqAFAelvhJHJP6RxCDNQdL6m2WYB3uqVyqhZqfIzUzjPa+wvrCAv7hEeXgEXXjVFys2SW4KIVBRiJVy4fQYmYEMTn+Znuu3yP7uUzrLy0w8XSSVyxC5NlYmg5tyEe2A9n4Np9lizA9ZL+Rxx2bx371I9NYbWD+bw+RzCOOAAGVASfXKFTXJ+lbd3nd0iNrZoba4THO7wrFCkfaxIcxQCdIuOo5R3Rrjji1QQFqAi0bGEUpHCGIMCYOSOOaVRKqFIsoVUMdG6cxMMPPxXXY2K7RfrsDJGvGwAWESxxQDbO6xu7pGb9CGQh49NUGpWIJ33qZvZBg9Mc7yo8c0FlZZ3KkkCb3GLrKqcZSF5UoygwMMDA6QnRinODtD7uJ5GByCnmyyDA7sQHcytXg9FlNJmIqQEtPyMTtVwihCZTI4PR7CTVJHQadBqhODEEjLRxhB3NKYVgdLGxwhujXNr5jzij+iey0ByqFQ6MOkbAJLoIMAwpBXzWAZreksrLB49TrbC0+YPDFDmMtSOJ5ClHuIcx56tED28ikKS5v0VHYw23voegPZCZGOg53NEo/3YR0fhKFBdD5L3NOfSBZGdgPLbmdFQvqYqGsLDBILy8jDum8vjCm0QvYB1ZOFvAMpAyag1apRebIEEtqWjxCSwLdprq9TbDQg8JPUMAYj6d6dZ5BGHhrapIzaxsnmIe3iC03U9sEPum5JMplWFGpUtUXtyQK7t28zGUqCX/jQMAQ9CuFI3N4M/QUPRkcpxTF0AghCiJMZxLbB8yCbSQJGY0AoTKy7FxIcdT4FBiWsbi8NcWyIiLFsCYEiii3a2ECELUPa0gYsqHSo3Fsk+o//SG1/Hyvq4NguYSSJKztsPVvGWBBYDhINQR0tIVYWopsY1AJiY7BFiK872DJCmpAo9CEKcDBd5kmsODZkQ43TaGPXA1KtkA4uxDZB3E26ySBx1Eq5ZPalfCVNdCswMHZSiKBNV7b92q0g5lV4cVDKCiJROmLQKtlDFQ7KSiMdL5EpwhbtMERHBtoasdNk8MlL1No6+WYbN53GDwyxjiEQjPaWcUt9yHQKKWMiEREjsMTBEjNoY4h1QKPTwMQ+kqhbDmhQR8qNEx9MaxxjEE4abI9SJ0a0A7Ky68LKgxEc1HEe3SMPVvSrXHdCj6+XiXbv0z18XRx+TOquLUqlcOwUtiexCw6eAlPdQ+41oN4oYVYAAAWhSURBVK0hnyc9cZzdD96kVavR8Tvd62iEMahQE/Z4yAszdIZ6wbawhYVj7IQNJpm0WITQComrLcJGRMbKIIr9kCskBZiiW4cslUIKhTKGThDT2Kux9fAxcm2dqpfIEFruIZAIY7/CpjswcWSgiFds+XoQd/i/OMDqiJk0kHZtCqPjeP1D2I7CzXlYxLT2dqnuVhnqRNBvUxoZgf/5f0J3WpgoTG6Cs3Ry2jghr13MYPX3YZTdVQkO7E03uJQWcRQT+CFxO8CVFiaTBTfVHVo3+yABcjb1jKIUt2g8f4D+P6pYqTT9Xa1DywBDEjt/vR3cmWcbjRJHGPG1z8VfS7SZw26Aj8TKFojfPE/w61/ASB/63HHK46M0HzxDPHyCPPUYyn14A1k6/cdQ3bx6Un736lzCGIQEo1TiKWt16BehBCps06pskXnyjNTte8wLwcjUFOrkNBTz6AONUIBl2xZkPAbGRsil09itNqyvEyqF6CQ7SiQjDBB+W5ajW2Dk6Airu567XXkdnO9IkQigqQVWoY/yxBiq2YJykZ7REQrTM1RfrLC4sszYw0dYJ2bJDQ+CZXfdJIkmxupOxcHCfl0AFa8yeZFBhwHbW5vE9x+y/uQZE5kMQ5MTtEaGIZN5rW9WLCX29CA9v7zETrlAxQ8J4wCtNT1dN6hhSZQxZHT8jUELkiUT8OrGs28H4bvftIzGcRXR3BxxqQiehzs6QuriWe4/eojzbB7X/gx/ahKEwBkpdJepjY408ojoKo78YSQIoUHEEAWYKETVK+w+u4/1+WcMbW2wd+4i1uVT6KFeooyLZQ6kd4nlKAE9GcZOTDNaHElustAxRmuS+y80oZJIY1BxzLc2IZIdTH4POt+nZAuDkJqwrw/RWwIlcd0UYmyM8bk5Nrb/zOqLeVZuXOeil0ZkZkh7GRxLIoU8dKEOGfL1bnQLKtvNOitPn3Dv7l3Ob6xTyGQZO3cGJidRrpMAfqSfXZvTi8z2wvi3D0jxF7bvS0J/DzgHd+a4AEJg4oger4j/3rs8cx0Gt/dYu3aDof/rN/SsVyD4NeLkLPHIYJLZVK/uuDkw/MJopInRQlD3fbzlLfZevGD4//yYv7n5gKWOYe7NSyz9zbs0Zo+RF+lEKjjSrMNRfdvA/qKM+1/Yvu9c+vUPiO426GY8Tp4+Re8HH5JutFi+e4c7//IvbNkhFzffpPHWZUq9JWw3g+3YCKWI4pjEj4qIOm06QcjWzg7NG3d4fOMmw59fpy80zF26QM/PP2RiZpZsPp8w/2vtp/mNBILEyhtDf7GXxi/PsVT0KadSbL5YYOC3V1EPVynefkBuaoLoWD8ym4VcvlsbLTHNJvHuHumFRcpPn+A+WubS+g47eY++y6ep/P1HZM6eJl/oSYqpvq0bP4XvsjD61Q1vyf9xt8SmWyHh7xPtbmH95gar166z9eV16o0GtZzL4PExdvp7KPb2IgoFLGURI/D3qzR2drFXVwiWl1ANzUhPH+W3LtH35puIv70C/X2g0t/Zr58kOF9X8Toy2Q2ze3tsrKwi//gp83fuUr75hOrONikTIoREWS625SCFIvQ7mDAkykqsnhT7p08zcPEC+Q/epWd4GNXXmwAvbb61JdH9Tx+cQBpiDG4rQGqNef4SsbqKufuM9soyrd0tWs0WfqOD0QYpJKl0Ci/jke7P44wPoubOwuQEDPZBKg1eKklhm++wLH8d4AiMbIGJiUwabSBUFqEGq1Jhb3ubYGMDv1rD2mtxmAspZFC9OZzeArlyL15xCNt1UHFXXZNBskviHokPj172pwKO+QFwRABotHEQCHT366js2CRf5hGEySMkcU6MSSpG0yrxvaQAy01KJLXp+mMRxsQI0S28Snry2nV/EuDA17v102g/ma38pwLI0faTAecof3/oe4r+32r/D0YQm5XX1Y4wAAAAAElFTkSuQmCC;" parent="1" vertex="1">
          <mxGeometry x="455.79" y="530" width="71" height="73" as="geometry" />
        </mxCell>
        <mxCell id="DkvLvzVgcHRsmgebOkIh-31" value="" style="shape=image;verticalLabelPosition=bottom;labelBackgroundColor=default;verticalAlign=top;aspect=fixed;imageAspect=0;image=data:image/png,iVBORw0KGgoAAAANSUhEUgAAAD8AAAArCAYAAADPGFBSAAAQIklEQVRogeWa+XMUV5LHP/nq6K7uVktq3QdCAgECBHhsMB4f2MYzs/PDbuyvG/vvbez+tBEbszEbc3lmPPb4gDEYA8KA0IGQBLqQWn131Xtvf6hqHRzGnggPEzGpkKKi9OpVfjO/LzNfvhJrreUfVNTLVuBlyj80eBfMC4ZYLAZtmwiCIw5YAeOgBUIRfBEUsvcRAJrJLd/uv//3YnL3xUNs8qsBAWvBOoDCIlixRMYgCMqCAEpi1EbU7hTyzMlfqoi1+gUBz4AVrFYgFkGwuomOqohO40Q+hCFoHQMUBxO4KMcF18Qk8QQRwWAQwLEAAvJyLfIdPJ+ICFEY0ijXqDfK1OpFahsN6sUQFYbYRoh1HVzXJcqmUZ5Lf18nbW056MziKAcjJmHF3wcNvgV8rKC1lmbUgFAh22WYXcC5M0P6+i3M3Wk61jeoNpu4ShHa2NO5rgKFzg7K4yfxjoxjz40jA4PUO1OkcOPVA9iXZIRWyHkm7Vup31pLM6wSNUJW5h+yfm+Wza9uUL47Q/vKBvlKhRHPJ5NvI5vNUms2qNXrVMMGFphPtdPR083G5AhHT01SOz5KX28vHUEOqxysvJzI90Lw2miINGZtnfL8AvK7P7F4Y4rgziybuQy1vm7UgQEyh0do6+3G+i7NSpVms4le2aS8XSR37QHlzcd0RB7Dh0dRH7xBx/mzREd7SfkBpIPdDPB95cnnvg+JkrHPpr0FtKFRqbLy9RQzV69hPvuCsFTm1UOjjJ97DU5OwHAf9BXA98HoOAWKA7UGVGtEE3dYvjlF8etv+Hr2LqX6Bm9GTZz8O/gDg5AyiJUdheJwmihnW1lGYY1FVJJpkuHWtB4TrNpNKN/HBrvgbUIGbZEwxNTKrNy8Te//fsnKrRvkxCN99jzFn79Odvwoqe5e3ABUoFAqTUymFFiFkViJ+dEDrLwzychvP2Lrq+v0fTlN6Zcfkdp2CX/6FtGpHjKpNFiDVg7G8VBYdFOj65uIMrh+FyYCP+VgdYT4YI1B1yyNehNXZTAZRTOwpHFImZb3Yl8ASCurPMEW9yn2mIgwbFJ5sMS9L69Smpumouv0nD3JofffRr06CYVu8FNAiFUGgwJrEa3BGqw4WISh9naG2tsJJEVvXz8bFbg1Nwef/JFUXlCD75IZHAQ3KZFMhN4qsba4zNbMN7Q5iuyh4xRGR0FJ7GUT0ahW0Q82WVpYIFcxBIM9eKdGcDJZEBWT5qk0+jQnXI3C7BmrTMRmcYv09Wm2P73MSPUxJ89Osvbv71MZHcfPd+F7PiiHCIcosai1Fi+Zx01eFOiYEHZ0GJPPkdeKzG9/Q8dfblC5lMYfH4BcHl3IY8MK1fIW6tYC61duwm8+JNDC2rtnCH56ETl1FMfzMY2IrYcPkT98zsqXVxhcWMMcP0T0b/+Ec/wYptCOEQ8tDh6Cwiaslj34Y5a7AqhkwWhtEB2ysfKIzNRtmqsbROOHGLjwNh0nJgmCfDxRtQra4ogC1wffA0dQIvvsa1olnyjS7Xn02TOMbq3TXFphbmmRoWtTMNAHzgBslyg+WKT56RXWPr1MY3GZNWOo/6lBoaFwTUSmt5tou8HDm99Q/uOfWZqZRRVLeM0ybTmP9lAhJ4/hZtI4roOIAteLsYrspNaWjq6TxBUN6EhjoxqLCzMcvnqDUQ3VN16Bt84R5jtpVKtEG5tUllexm9uIE5Ar9BMM9RK057C+i8XuLLZI4qgkroN4Pna0F/vqCTpm7mH+/Dn2kyssKUvx9AGCzZCFb+YZ+vwKZ+eX2Dg6ypaJ8O+vwtZlHja2aD94kPq2YXXqFkM35xgd6Kfa2YEqV8n86hKrVSg9eox0BDRTllx7J52Dg6QLnbipFCZhuYezu+YNu5HSLq9Tn1tko7JF/8FR3NET4LahNrcp3b6Lc/UGG/cXCR9vIl4G1TeCTIzhTxzFGRuGTJrIccCCk4Rkm1Q1roXe0VGqr/4INTtPZeYBq7/boHazjXTTobS2zUMHChdeYeyDi2xEIY0/XWJmZo71Ty7Tdu0b6qFgjWX71DiTF9/HZoXVG7d59NFlNi99gTs/jcoENByhMDJM2+QkzmuTMDyI5AKcPdR0rcTgHQuOCOHSGu7aFtZqBkaGKfWMYRouxaVHrHx6hfZf/B+pSo1uK9S1InKnmLsxwNCFN/H5MbmDw5j2PFYJgdUAaGUTBrh4hU7k5Al6pmcY3iiz+mgZb30Z5WZpS+epvH4M9ZMLRK+cw400uXw7lY//zPCX16g9KiLA8OnTLP7kHfT5c+iMIRjqpy9StF+/Rse9OZp4WK14dH2GzVv3qdSr9Lx1Dg4N4KV8IA1IkurEIhoqpTKppUVSqytU0z7B+Bh+h4NsLuN89DGrn35OtVqn7egRSkeOkKnVWZq+x/bifTr/GFJpzxK0t+Pns2gMkXjJ9EmpLICjcIaH6PrZe3BklHRxk0azjuN4qI4Cg6NDOKMjUOjGt2BfDzg0PEzxx6/T2NxCBKKDBxk7Mo7T14PjK/xUB16mk9Rb59h4sIApFYlKm1Sm7lBcvkf4izKFx1u4P30PO34YaROiKIoDXqygpV6rkdvYIL1dopbyoacLJyU055doXvmK9No6g0eO0fev/4I5PUmqtI1z+RKV3/4BWVhme2EBKZVRpgmOIhQfAG9vPlXgFPLkzkzinjhEtzaEzQYigp9OI56f7Iu9uGDq9XH7e8mdPo6qVGK6ZgKU54IoUIItdOG+0kZw6gQdjSZOZQO9ssDgx11U/3KV6ZkHLHz4EVU3zYRNoyZS3F9ciD0vgJEkItaaqFBDyoe0h3bqbBXXUMuP6ewo4L9zlsz5M5SHB1FRE50Nyc7PUFlapHT/AWZlAz0+ilI+btIoaRm4VXS4IniZNGI8lAVrdVyhiWBFaEUK0Mku0JJyXTy/DRCUE9cFcaw2IOCkHBwcvMDFtgdE3d14XUMsj47R91+/YvurKYruH5CODmrDPXz62We7FV6rmHSt4FnQEt+xHoRRHVWq4eez1DuymI4cdd8DT7OVTzHc20U9pYiKJWyxjI0ECRSC3gfe7Lwr/kElNUaSd1sEESQGhY0LKCwNrRPQllBHuI6zQyZjDdpoXNdFiRChiLw23AMpGpUSBwemsNfusb22jpqfx0QRDxYWkmhvLR6CI4IJfOqOEJVrIA7KQFDoYrO/h5XNIsNfz+FMPKLbRFCu03ZnhfLtBwRVB9PfjenO4koVEVA2tm1c7grK2rg+NwaFQkKSzhDYSLNXlMTgWxYJ9lEIINwdbJM/Es/hkKJe07iPl8hPz1FeXCDrC/6ZVzETp0kFQczA1vOtVKeCNF7KR29tQ7mMNZp8ZyfOwTFmr/yF5a9vIgPdVE+NkapGfDN1h+75BxxXPiNjY3i9XYgLWM2+rUNSYogodNRgs1hhc2WLWrWyr//X8r6LYbcsefEmTnbGWByVo1IBu3CT5enr9C0tMtnZSXD6DN6xCVL5PAMDA7iKJNlL0mHoylPPB7QtGlhaoVg7TWFknPCf36NSXMG7fput//kl7b9JI0Y4uLHFoqtYO3+awrlzeMOHMOkGVhoYgn1qOoDVmrWldR5/8jnjH3/G43IVHYYY24oPgkWhbJNva66q522FRbChRtUb1Cplhms1lof6KV28iPrZm+iRIUTgwoULScBrAbcW+gfI5HJsVKqszN+ntLFJoaOL3JFx3n7/PTwnw/rDRbx6DaOFQ929HDxxlOzr55DhA6jAx0rjmXoZbQjrTdZW15i9dQv3+k2065LxPLS1ybZUEBTy14IHFELKgg1D+nv7GH7jDdp+fB490Ivjx+n3wIEDu9G+4kBmqI+GrbFy7AiHPpti69YdzMxDGD2K9LXj/uwNaq+N0rxzj8rsfba8HOXRIwycOIoM9mGDFJFn8HQWrMWx8bqMPD8OYeEm5dl5+n7/O2a++IJN7ZA+cpDtsb6YtkkrXAt45vlNLmstqhUkzdNW0MohsnH8Kvb30fejk+THR0nlPKw0gRRBEOxvZogI6XyeoeFh+vr7ubmwgMzfx9xfQI/3ks610dGRpa/Qi0yeATcLbQVoD8D3iNRu1hBJGhstrxtDVG+wcH+e+p27WB0xfvoMvRffhFcmwE1U2amzn+/ZeAvqgHqOeUTFlvQcyGUhcMB3sUri1Z0Qyk1i6q4VUhkKwyOkXnuFx4+WOPPh77EmxMu9h9c3gM72INkeosQzohIf2HhNY0HHpT0OBmMMpt5A12tEt6cpXbrCwas3SA0N8ODCj+h6+zXk0BAqMVRLH7X/GGRPGmzJd+v/WewOOyTZY7S27ztrXiUvkHSazq4e0seOMjo7y/rVG1QuXSI91sX42RSNTIaU6+NIvE6NjltMsRNs3EhI2lFGa7SOiKp1ttZWWb10lfu37tLnehw+cZzo9Emc3t49qWqXOU+u9yfBf3vrT2K9BJRSiBKedR67c1zl7BQaQtA/BOctOV8IHheZnp6h9z9+Ta1o0e861AsdSEeewPcR0zrJARtFYC1KCdZCo1KhVqkiCw9ZvPIVg//5CWeUpnruTXIf/JzwyDFIZ9iLercBI/sAPnniFcnz4YuVGDCw257dk3We18A0gHJBensZP32KxsUV1hzFytwym7/+ELW+wsDJCbKTx0h3dyGuF6cXExvRGE2jWiOMQhpLq8zdm6Z68w6zU7exusrIsQmCd97COXEcJ5fdA2lXuaez/g8jEllt47I29nw9ebMDRDqiPr3I4uUrZP/7I1Zm7zIkFm9yjPDcUbyRwzjdPaj2LMZzURbqtSrh0iqVUpneSzd4uLBA150ZTNpn6exJJt67CO9fpLOnE7xnadS6aK3+WHaakcmtUDk8X/YbTSz74oeT0Eu0NdYCTjJ72OrlJQ+pWohZXaP5xRTLl79g/etrPKgWKfuGjp4BugYGSRfaEd8najSoVivUVx/HldvSOinXYzgTcOz0JPrdNwgmjsPQUNxAU62g9YR2Oyj3gH/CNvr7HHg8MX3rIFVe9GWGxqBNRK1cYnthkcqX16hO3cXMLZNdXaOzUqERRvH+ODmr83wfx3FYHRmhfWiI+usn6Tt8CH2wn7a2POK5WAMiqUQz83S39Qc9yYoN90LwxhrEWgQDzQi7ukq4uExpcZnS9AKyXqTWrFOr1Uml4uIhn88TpNNwfIyguweOjkA2BykHlLtD3fio++8YPKZ1ABBvNIzVRKFGh3V0MYKyJazXCOt1XNfFdV38dBrledgDWZQSQkfhxQsJB0Fp4gKlleJIwP/Nzi2/I/jWf8Ume3ABg2DE4kSCiohLJq2TwYJVCkSQIPasTnZnVuLKXWyriofdHPdDAX2WfG/wiY8kbnM3BXySqu454jyxLzF7YpTQitx2N4T/zSQ5tPi2IRaIEja2QLZKb4dWGfJtiu/5LGXPhRB/xsJLOqJuyQu/zEjqt6fA76Psd5YW+L+1p58tL6b9Uxf7s++3LdWnTkd3Bj+9TXmRPKmmPJkd/gp5oeflqYtnF6LfbZLv+dwPLP8PNMhT0OdXEGMAAAAASUVORK5CYII=;" parent="1" vertex="1">
          <mxGeometry x="455.78999999999996" y="190" width="63" height="43" as="geometry" />
        </mxCell>
        <mxCell id="DkvLvzVgcHRsmgebOkIh-35" value="&lt;b&gt;Request for AWS creds&amp;nbsp;&lt;/b&gt;" style="text;html=1;align=center;verticalAlign=middle;resizable=0;points=[];autosize=1;strokeColor=none;fillColor=none;" parent="1" vertex="1">
          <mxGeometry x="195" y="325" width="160" height="30" as="geometry" />
        </mxCell>
        <mxCell id="DkvLvzVgcHRsmgebOkIh-37" value="&lt;div style=&quot;&quot;&gt;&lt;span style=&quot;background-color: initial;&quot;&gt;&lt;b&gt;Using the access key/secret key&lt;/b&gt;&lt;/span&gt;&lt;/div&gt;&lt;div style=&quot;&quot;&gt;&lt;span style=&quot;background-color: initial;&quot;&gt;&lt;b&gt;, vault makes a request to the&lt;/b&gt;&lt;/span&gt;&lt;/div&gt;&lt;div style=&quot;&quot;&gt;&lt;span style=&quot;background-color: initial;&quot;&gt;&lt;b&gt;regional AWS STS endpoint for credentials&lt;/b&gt;&lt;/span&gt;&lt;/div&gt;&lt;div style=&quot;&quot;&gt;&lt;span style=&quot;background-color: initial;&quot;&gt;&lt;b&gt;&amp;nbsp;against the intended account and role&lt;/b&gt;&lt;/span&gt;&lt;/div&gt;" style="text;html=1;align=left;verticalAlign=middle;resizable=0;points=[];autosize=1;strokeColor=none;fillColor=none;" parent="1" vertex="1">
          <mxGeometry x="220" y="90" width="270" height="70" as="geometry" />
        </mxCell>
        <mxCell id="DkvLvzVgcHRsmgebOkIh-42" value="&lt;h1&gt;1&lt;/h1&gt;" style="ellipse;whiteSpace=wrap;html=1;aspect=fixed;strokeWidth=2;fontFamily=Tahoma;spacingBottom=4;spacingRight=2;strokeColor=#d3d3d3;" parent="1" vertex="1">
          <mxGeometry x="150" y="335" width="25" height="25" as="geometry" />
        </mxCell>
        <mxCell id="DkvLvzVgcHRsmgebOkIh-43" value="&lt;h1&gt;2&lt;/h1&gt;" style="ellipse;whiteSpace=wrap;html=1;aspect=fixed;strokeWidth=2;fontFamily=Tahoma;spacingBottom=4;spacingRight=2;strokeColor=#d3d3d3;" parent="1" vertex="1">
          <mxGeometry x="190" y="70" width="30" height="30" as="geometry" />
        </mxCell>
        <mxCell id="DkvLvzVgcHRsmgebOkIh-44" value="&lt;h1&gt;3&lt;/h1&gt;" style="ellipse;whiteSpace=wrap;html=1;aspect=fixed;strokeWidth=2;fontFamily=Tahoma;spacingBottom=4;spacingRight=2;strokeColor=#C73500;fillColor=#fa6800;fontColor=#000000;" parent="1" vertex="1">
          <mxGeometry x="865" y="199" width="25" height="25" as="geometry" />
        </mxCell>
        <mxCell id="DkvLvzVgcHRsmgebOkIh-45" value="&lt;h1&gt;4&lt;/h1&gt;" style="ellipse;whiteSpace=wrap;html=1;aspect=fixed;strokeWidth=2;fontFamily=Tahoma;spacingBottom=4;spacingRight=2;strokeColor=#d3d3d3;" parent="1" vertex="1">
          <mxGeometry x="230" y="405" width="25" height="25" as="geometry" />
        </mxCell>
        <mxCell id="DkvLvzVgcHRsmgebOkIh-46" value="&lt;h1&gt;5&lt;/h1&gt;" style="ellipse;whiteSpace=wrap;html=1;aspect=fixed;strokeWidth=2;fontFamily=Tahoma;spacingBottom=4;spacingRight=2;strokeColor=#C73500;fillColor=#fa6800;fontColor=#000000;" parent="1" vertex="1">
          <mxGeometry x="572" y="510" width="25" height="25" as="geometry" />
        </mxCell>
        <mxCell id="DkvLvzVgcHRsmgebOkIh-47" value="&lt;h1&gt;6&lt;/h1&gt;" style="ellipse;whiteSpace=wrap;html=1;aspect=fixed;strokeWidth=2;fontFamily=Tahoma;spacingBottom=4;spacingRight=2;strokeColor=#C73500;fillColor=#fa6800;fontColor=#000000;" parent="1" vertex="1">
          <mxGeometry x="945" y="330" width="25" height="25" as="geometry" />
        </mxCell>
        <mxCell id="DkvLvzVgcHRsmgebOkIh-51" value="Role" style="text;html=1;align=center;verticalAlign=middle;resizable=0;points=[];autosize=1;strokeColor=none;fillColor=none;" parent="1" vertex="1">
          <mxGeometry x="615" y="685" width="50" height="30" as="geometry" />
        </mxCell>
        <mxCell id="DkvLvzVgcHRsmgebOkIh-52" value="&lt;b&gt;User access account using&lt;br&gt;credentials bound by role and &lt;br&gt;attached IMA policy in target account&lt;/b&gt;" style="text;html=1;align=left;verticalAlign=middle;resizable=0;points=[];autosize=1;strokeColor=none;fillColor=none;" parent="1" vertex="1">
          <mxGeometry x="610" y="492.5" width="240" height="60" as="geometry" />
        </mxCell>
        <mxCell id="DkvLvzVgcHRsmgebOkIh-55" value="&lt;b&gt;Vault revokes temporary &lt;br&gt;security credentials upon&lt;br&gt;TTL expiration&lt;/b&gt;" style="text;html=1;align=left;verticalAlign=middle;resizable=0;points=[];autosize=1;strokeColor=none;fillColor=none;" parent="1" vertex="1">
          <mxGeometry x="975" y="312.5" width="170" height="60" as="geometry" />
        </mxCell>
        <mxCell id="DkvLvzVgcHRsmgebOkIh-56" value="&lt;b&gt;STS returns the&amp;nbsp;&lt;br&gt;generated credentials&amp;nbsp;&lt;br&gt;to vault&lt;/b&gt;" style="text;html=1;align=left;verticalAlign=middle;resizable=0;points=[];autosize=1;strokeColor=none;fillColor=none;" parent="1" vertex="1">
          <mxGeometry x="895" y="162" width="150" height="60" as="geometry" />
        </mxCell>
        <mxCell id="DkvLvzVgcHRsmgebOkIh-57" value="&lt;b&gt;Vault returns the&amp;nbsp;&lt;br&gt;credentials to the&lt;br&gt;&amp;nbsp;user with TTL&amp;nbsp;&lt;/b&gt;" style="text;html=1;align=left;verticalAlign=middle;resizable=0;points=[];autosize=1;strokeColor=none;fillColor=none;" parent="1" vertex="1">
          <mxGeometry x="265" y="405" width="120" height="60" as="geometry" />
        </mxCell>
      </root>
    </mxGraphModel>
  </diagram>
</mxfile>
